<svg width="12" height="2" viewBox="0 0 12 2" fill="none" xmlns="http://www.w3.org/2000/svg">
<path d="M1.68039 0.0708159C1.92039 0.0708159 2.11239 0.142816 2.25639 0.286816C2.40039 0.430816 2.47239 0.622816 2.47239 0.862816C2.47239 1.10282 2.39439 1.30082 2.23839 1.45682C2.09439 1.60082 1.90839 1.67282 1.68039 1.67282C1.45239 1.67282 1.26039 1.59482 1.10439 1.43882C0.948392 1.28282 0.870392 1.09082 0.870392 0.862816C0.870392 0.634816 0.942392 0.448816 1.08639 0.304816C1.24239 0.148816 1.44039 0.0708159 1.68039 0.0708159ZM6.12639 0.0528161C6.36639 0.0528161 6.55839 0.124816 6.70239 0.268816C6.84639 0.412816 6.91839 0.604816 6.91839 0.844816C6.91839 1.08482 6.84039 1.28282 6.68439 1.43882C6.54039 1.58282 6.35439 1.65482 6.12639 1.65482C5.89839 1.65482 5.70639 1.57682 5.55039 1.42082C5.39439 1.26482 5.31639 1.07282 5.31639 0.844816C5.31639 0.616816 5.38839 0.430816 5.53239 0.286816C5.68839 0.130816 5.88639 0.0528161 6.12639 0.0528161ZM10.6084 0.0528161C10.8484 0.0528161 11.0404 0.124816 11.1844 0.268816C11.3284 0.412816 11.4004 0.604816 11.4004 0.844816C11.4004 1.08482 11.3224 1.28282 11.1664 1.43882C11.0224 1.58282 10.8364 1.65482 10.6084 1.65482C10.3804 1.65482 10.1884 1.57682 10.0324 1.42082C9.87639 1.26482 9.79839 1.07282 9.79839 0.844816C9.79839 0.616816 9.87039 0.430816 10.0144 0.286816C10.1704 0.130816 10.3684 0.0528161 10.6084 0.0528161Z" fill="black"/>
</svg>
