<svg width="163" height="66" viewBox="0 0 163 66" fill="none" xmlns="http://www.w3.org/2000/svg">
<path d="M13.508 15.36C13.604 15.048 15.416 14.892 18.944 14.892C22.496 14.868 24.32 15.024 24.416 15.36C24.536 15.672 24.512 16.464 24.344 17.736C24.104 19.248 23.972 20.292 23.948 20.868L23.876 22.056H17.18L17.288 24.36C17.312 25.896 17.444 26.976 17.684 27.6C17.756 27.84 17.816 28.032 17.864 28.176C17.912 28.296 17.996 28.392 18.116 28.464C18.236 28.536 18.356 28.584 18.476 28.608C18.62 28.608 18.824 28.608 19.088 28.608C19.808 28.608 20.792 28.464 22.04 28.176C23.36 27.84 24.272 27.684 24.776 27.708C25.28 27.732 25.532 27.924 25.532 28.284C25.532 28.332 25.532 28.368 25.532 28.392C25.532 28.704 25.4 28.908 25.136 29.004C24.872 29.1 23.936 29.304 22.328 29.616C22.256 29.64 22.208 29.652 22.184 29.652C20.264 30.036 18.968 30.204 18.296 30.156C17.648 30.084 17.072 29.772 16.568 29.22C16.136 28.692 15.836 27.984 15.668 27.096C15.524 26.184 15.488 24.816 15.56 22.992L15.632 20.22L17 20.256C18.632 20.352 19.736 20.4 20.312 20.4C21.56 20.472 22.232 20.472 22.328 20.4C22.4 20.304 22.46 19.752 22.508 18.744C22.556 17.712 22.568 16.956 22.544 16.476C22.52 16.308 22.22 16.212 21.644 16.188C21.092 16.14 19.916 16.164 18.116 16.26C16.94 16.332 16.052 16.368 15.452 16.368C14.852 16.368 14.348 16.344 13.94 16.296C13.556 16.224 13.376 16.116 13.4 15.972C13.424 15.828 13.46 15.624 13.508 15.36ZM34.46 16.224C34.676 15.96 34.988 15.828 35.396 15.828C35.66 15.828 35.816 16.068 35.864 16.548C35.912 17.004 35.876 18.468 35.756 20.94C35.468 26.844 35.468 30.192 35.756 30.984C35.78 31.152 35.804 31.272 35.828 31.344C35.852 31.416 35.828 31.488 35.756 31.56C35.708 31.608 35.624 31.644 35.504 31.668C35.384 31.668 35.228 31.668 35.036 31.668C34.388 31.668 34.004 31.296 33.884 30.552C33.764 29.808 33.776 27.756 33.92 24.396C34.112 20.652 34.184 18.408 34.136 17.664C34.136 16.92 34.244 16.44 34.46 16.224ZM30.032 20.256C30.104 19.44 30.188 18.96 30.284 18.816C30.38 18.648 30.62 18.588 31.004 18.636C31.316 18.66 31.52 18.732 31.616 18.852C31.712 18.972 31.736 19.188 31.688 19.5C31.592 20.052 31.544 21.684 31.544 24.396C31.544 25.404 31.532 26.172 31.508 26.7C31.508 27.204 31.484 27.624 31.436 27.96C31.388 28.272 31.328 28.464 31.256 28.536C31.208 28.584 31.112 28.608 30.968 28.608C30.848 28.608 30.716 28.524 30.572 28.356C30.428 28.164 30.296 27.924 30.176 27.636C30.08 27.348 29.996 27.012 29.924 26.628C29.852 26.22 29.816 25.812 29.816 25.404C29.816 24.684 29.708 24.252 29.492 24.108C29.276 23.94 28.784 23.916 28.016 24.036C25.64 24.516 24.332 24.468 24.092 23.892C23.996 23.58 23.996 23.376 24.092 23.28C24.236 23.16 25.172 22.956 26.9 22.668C28.604 22.428 29.54 22.248 29.708 22.128C29.828 21.984 29.936 21.36 30.032 20.256Z" fill="black" fill-opacity="0.5"/>
<path d="M53.0658 13.92C53.0898 13.752 53.3178 13.668 53.7498 13.668C54.0378 13.668 54.2058 14.028 54.2538 14.748C54.3018 15.468 54.3258 17.88 54.3258 21.984C54.2778 27.6 54.3378 30.912 54.5058 31.92L54.7218 33.576L53.8218 33.432C53.4858 33.384 53.2218 33.264 53.0298 33.072C52.8618 32.88 52.7298 32.448 52.6338 31.776C52.5618 31.08 52.5258 30.204 52.5258 29.148C52.5498 28.092 52.5978 26.544 52.6698 24.504C52.7658 21.696 52.8498 18.852 52.9218 15.972C52.9938 14.7 53.0418 14.016 53.0658 13.92ZM41.9058 17.268C42.2898 16.716 42.7818 16.44 43.3818 16.44C43.9818 16.44 44.2818 16.488 44.2818 16.584C44.2818 16.68 43.9338 17.22 43.2378 18.204C42.6138 19.068 42.3498 19.68 42.4458 20.04C42.5418 20.4 43.1298 20.94 44.2098 21.66C45.0738 22.236 46.2618 23.304 47.7738 24.864C49.2858 26.424 50.0418 27.336 50.0418 27.6C50.0418 27.912 49.8738 28.116 49.5378 28.212C49.1778 28.356 48.3018 27.66 46.9098 26.124C45.6138 24.732 44.4378 23.676 43.3818 22.956C42.3258 22.236 41.6418 22.02 41.3298 22.308C41.0178 22.548 40.6578 23.136 40.2498 24.072C39.8418 25.008 39.5658 25.92 39.4218 26.808C39.2298 27.768 39.0618 28.368 38.9178 28.608C38.7738 28.824 38.5218 28.932 38.1618 28.932C37.8978 28.932 37.7418 28.872 37.6938 28.752C37.6458 28.608 37.6578 28.272 37.7298 27.744C37.9698 26.328 38.5338 24.504 39.4218 22.272C40.3098 20.04 41.1378 18.372 41.9058 17.268Z" fill="black" fill-opacity="0.5"/>
<path d="M75.1487 13.92C75.1727 13.728 75.4007 13.668 75.8327 13.74L76.5527 13.848V22.668C76.5527 28.428 76.5887 31.584 76.6607 32.136C76.7327 32.376 76.7207 32.544 76.6247 32.64C76.5527 32.712 76.3127 32.748 75.9047 32.748H74.9687L74.7887 30.3C74.6687 28.5 74.6567 26.52 74.7527 24.36C74.8727 21.576 74.9447 19.284 74.9687 17.484C75.0167 17.148 75.0407 16.8 75.0407 16.44C75.0647 16.056 75.0767 15.732 75.0767 15.468C75.1007 15.18 75.1127 14.928 75.1127 14.712C75.1127 14.472 75.1127 14.292 75.1127 14.172C75.1367 14.028 75.1487 13.944 75.1487 13.92ZM56.5367 15.288L64.4927 15.252H72.4487L72.3407 16.044C72.3167 16.476 72.1967 16.728 71.9807 16.8C71.7887 16.848 71.1527 16.848 70.0727 16.8C67.6727 16.752 66.6047 16.968 66.8687 17.448C67.0607 17.688 67.2167 18.768 67.3367 20.688C67.5287 23.088 67.6607 24.564 67.7327 25.116L67.9127 26.592L69.6407 26.376C70.8167 26.28 71.5727 26.172 71.9087 26.052C72.2447 25.884 72.4127 25.98 72.4127 26.34C72.4127 26.772 72.2447 27.156 71.9087 27.492C71.4527 27.852 70.0487 28.116 67.6967 28.284C65.3447 28.452 63.2447 28.428 61.3967 28.212C59.9807 28.068 59.1167 27.948 58.8047 27.852C58.5167 27.756 58.3967 27.564 58.4447 27.276C58.4927 26.988 58.6247 26.808 58.8407 26.736C59.0807 26.664 59.5847 26.604 60.3527 26.556L62.1527 26.484L61.8647 25.008C61.6967 23.832 61.5767 22.236 61.5047 20.22L61.2887 16.872L58.9847 16.764C57.9527 16.692 57.3047 16.608 57.0407 16.512C56.8007 16.416 56.6567 16.212 56.6087 15.9L56.5367 15.288ZM66.1487 17.736C66.2447 17.4 66.2327 17.196 66.1127 17.124C65.9927 17.052 65.5727 17.016 64.8527 17.016H63.3407L63.1607 18.384C62.9927 19.56 62.9927 20.904 63.1607 22.416C63.3527 23.928 63.6527 25.008 64.0607 25.656C64.5647 26.4 65.0087 26.772 65.3927 26.772C65.6807 26.772 65.8487 26.58 65.8967 26.196C65.9447 25.788 65.9567 24.588 65.9327 22.596C65.9087 19.764 65.9807 18.144 66.1487 17.736Z" fill="black" fill-opacity="0.5"/>
<path d="M92.7215 13.992C93.5855 13.464 94.6175 13.308 95.8175 13.524C97.0415 13.74 98.1335 14.268 99.0935 15.108C99.4535 15.42 100.63 15.588 102.621 15.612C104.373 15.612 105.345 15.528 105.537 15.36C105.609 15.288 105.67 15.132 105.717 14.892C105.838 14.508 106.065 14.244 106.401 14.1C106.761 13.956 107.002 14.052 107.122 14.388C107.242 14.748 107.313 16.776 107.338 20.472C107.362 22.776 107.349 24.312 107.301 25.08C107.253 25.848 107.146 26.268 106.978 26.34C106.618 26.508 106.317 26.4 106.077 26.016C105.838 25.632 105.717 25.044 105.717 24.252C105.67 23.076 105.586 22.236 105.465 21.732C105.369 21.3 105.214 21.036 104.997 20.94C104.782 20.844 104.062 20.76 102.838 20.688C101.686 20.616 100.989 20.532 100.749 20.436C100.509 20.34 100.365 20.124 100.317 19.788C100.245 19.452 100.317 19.26 100.534 19.212C100.773 19.164 101.565 19.164 102.91 19.212L105.61 19.32L105.502 18.42C105.406 17.796 105.31 17.436 105.214 17.34C105.142 17.22 104.193 17.148 102.369 17.124L99.6335 16.98V17.988C99.6335 18.372 99.5495 18.828 99.3815 19.356C99.2135 19.86 98.9855 20.364 98.6975 20.868C98.4335 21.348 98.1575 21.756 97.8695 22.092C97.4375 22.596 96.7775 23.052 95.8895 23.46C95.0015 23.844 94.2215 24.036 93.5495 24.036C93.0695 24.036 92.6495 23.964 92.2895 23.82C91.9535 23.652 91.5215 23.316 90.9935 22.812C90.1775 22.068 89.6615 21.348 89.4455 20.652C89.2535 19.956 89.3135 19.14 89.6255 18.204C89.8895 17.388 90.3095 16.572 90.8855 15.756C91.4855 14.94 92.0975 14.352 92.7215 13.992ZM97.4735 15.54C95.3615 14.796 93.5615 15.24 92.0735 16.872C91.6175 17.352 91.2815 18.036 91.0655 18.924C90.8735 19.788 90.8855 20.496 91.1015 21.048C91.3655 21.648 91.8455 22.104 92.5415 22.416C93.2375 22.704 93.9215 22.74 94.5935 22.524C96.9455 21.756 98.1215 20.076 98.1215 17.484C98.1215 16.764 98.0735 16.296 97.9775 16.08C97.9055 15.84 97.7375 15.66 97.4735 15.54ZM99.5975 27.312C99.9335 27.24 100.138 27.24 100.21 27.312C100.33 27.384 100.39 28.248 100.39 29.904C100.414 30.6 100.45 31.236 100.497 31.812C100.545 32.388 100.594 32.712 100.642 32.784C100.785 33.024 101.338 33.156 102.298 33.18C103.282 33.204 104.049 33.108 104.602 32.892C105.154 32.748 105.91 32.604 106.869 32.46C107.686 32.364 108.214 32.4 108.453 32.568C108.717 32.736 108.754 33.132 108.562 33.756C108.514 34.02 108.394 34.2 108.201 34.296C108.034 34.392 107.733 34.44 107.301 34.44C106.677 34.368 105.298 34.416 103.161 34.584C102.394 34.632 101.841 34.668 101.506 34.692C101.194 34.716 100.846 34.68 100.462 34.584C100.077 34.512 99.8375 34.428 99.7415 34.332C99.6455 34.236 99.5255 34.008 99.3815 33.648C99.2375 33.288 99.1535 32.94 99.1295 32.604C99.1055 32.268 99.0815 31.716 99.0575 30.948C98.9615 29.388 98.9375 28.416 98.9855 28.032C99.0335 27.648 99.2375 27.408 99.5975 27.312Z" fill="black" fill-opacity="0.5"/>
<path d="M113.166 12.66C113.31 12.516 114.954 12.516 118.098 12.66C121.266 12.78 123.078 12.936 123.534 13.128C123.966 13.296 124.182 13.68 124.182 14.28C124.182 14.88 123.99 16.164 123.606 18.132C123.198 20.076 122.994 21.348 122.994 21.948C122.994 22.572 122.85 22.92 122.562 22.992C121.914 23.256 121.878 23.46 122.454 23.604L123.714 23.748C124.674 23.748 125.85 23.808 127.242 23.928C128.058 24 128.574 24.096 128.79 24.216C129.006 24.312 129.114 24.516 129.114 24.828C129.114 25.164 128.958 25.356 128.646 25.404C128.334 25.452 127.254 25.44 125.406 25.368L121.698 25.188L121.914 33.324L121.122 33.432C120.714 33.48 120.462 33.42 120.366 33.252C120.294 33.108 120.21 32.532 120.114 31.524C119.97 30.252 119.946 29.232 120.042 28.464C120.21 27.72 120.21 27.036 120.042 26.412L119.898 25.476L110.502 25.908V25.116C110.502 24.612 110.586 24.348 110.754 24.324C111.138 24.324 112.674 24.276 115.362 24.18C118.146 24.084 119.79 23.988 120.294 23.892C120.822 23.796 121.098 23.472 121.122 22.92C121.122 21.936 121.494 19.56 122.238 15.792C122.31 15.264 122.31 14.94 122.238 14.82C122.19 14.7 121.926 14.592 121.446 14.496C120.726 14.376 119.142 14.316 116.694 14.316C114.822 14.316 113.73 14.292 113.418 14.244C113.106 14.172 112.95 13.956 112.95 13.596C112.95 13.092 113.022 12.78 113.166 12.66Z" fill="black" fill-opacity="0.5"/>
<path d="M136.867 11.436C137.227 11.028 137.539 10.896 137.803 11.04C138.091 11.184 138.199 11.556 138.127 12.156C138.079 12.78 138.295 13.368 138.775 13.92C139.255 14.448 140.287 15.24 141.871 16.296C143.527 17.328 144.679 18.156 145.327 18.78C145.999 19.38 146.335 19.884 146.335 20.292C146.335 20.772 146.227 21.012 146.011 21.012C145.723 21.012 143.563 19.5 139.531 16.476C138.163 15.444 137.371 14.928 137.155 14.928C137.011 14.928 136.735 15.312 136.327 16.08C135.943 16.848 135.523 17.784 135.067 18.888C134.611 19.992 134.263 21 134.023 21.912C133.735 22.872 133.507 23.508 133.339 23.82C133.171 24.108 132.955 24.264 132.691 24.288C132.451 24.336 132.271 24.336 132.151 24.288C132.055 24.216 131.995 24.072 131.971 23.856C131.971 23.64 132.007 23.364 132.079 23.028C132.175 22.668 132.295 22.164 132.439 21.516C132.703 20.532 133.411 18.72 134.563 16.08C135.739 13.416 136.507 11.868 136.867 11.436ZM137.839 22.74C137.983 22.38 138.271 22.2 138.703 22.2C138.991 22.2 139.159 22.392 139.207 22.776C139.279 23.136 139.303 24.216 139.279 26.016C139.255 28.512 139.315 29.88 139.459 30.12C139.627 30.384 140.947 30.456 143.419 30.336C145.939 30.168 147.439 30.048 147.919 29.976C148.327 29.88 148.567 29.868 148.639 29.94C148.711 30.012 148.747 30.276 148.747 30.732C148.747 31.356 148.579 31.68 148.243 31.704C145.675 31.896 142.495 32.04 138.703 32.136C134.935 32.208 132.751 32.196 132.151 32.1C131.647 31.956 131.311 31.824 131.143 31.704C130.999 31.584 130.927 31.368 130.927 31.056C130.927 30.768 130.975 30.576 131.071 30.48C131.167 30.384 131.323 30.36 131.539 30.408C132.475 30.528 133.447 30.624 134.455 30.696C135.487 30.744 136.219 30.72 136.651 30.624L137.659 30.444V26.844C137.611 24.516 137.671 23.148 137.839 22.74Z" fill="black" fill-opacity="0.5"/>
<path d="M0 0H163V2H0V0Z" fill="black" fill-opacity="0.5"/>
<path d="M0 47.5H163V49.5H0V47.5Z" fill="black" fill-opacity="0.5"/>
<path d="M158.27 61.1001C157.79 61.1001 157.417 60.9534 157.15 60.6601C156.883 60.3667 156.75 59.9601 156.75 59.4401C156.75 58.9067 156.887 58.4967 157.16 58.2101C157.44 57.9167 157.823 57.7701 158.31 57.7701C158.47 57.7701 158.623 57.7867 158.77 57.8201C158.923 57.8467 159.073 57.8934 159.22 57.9601L159.05 58.4601C158.923 58.4067 158.797 58.3667 158.67 58.3401C158.55 58.3134 158.427 58.3001 158.3 58.3001C158.007 58.3001 157.783 58.3967 157.63 58.5901C157.483 58.7767 157.41 59.0601 157.41 59.4401C157.41 59.8001 157.483 60.0801 157.63 60.2801C157.777 60.4734 157.99 60.5701 158.27 60.5701C158.403 60.5701 158.543 60.5534 158.69 60.5201C158.843 60.4801 159.003 60.4267 159.17 60.3601V60.9001C159.01 60.9667 158.857 61.0167 158.71 61.0501C158.563 61.0834 158.417 61.1001 158.27 61.1001ZM158 63.5501C157.433 63.5501 156.9 63.4434 156.4 63.2301C155.9 63.0167 155.46 62.7234 155.08 62.3501C154.707 61.9701 154.413 61.5301 154.2 61.0301C153.987 60.5301 153.88 59.9967 153.88 59.4301C153.88 58.8567 153.987 58.3234 154.2 57.8301C154.413 57.3301 154.707 56.8934 155.08 56.5201C155.46 56.1401 155.9 55.8434 156.4 55.6301C156.9 55.4167 157.433 55.3101 158 55.3101C158.573 55.3101 159.107 55.4167 159.6 55.6301C160.1 55.8434 160.537 56.1401 160.91 56.5201C161.29 56.8934 161.587 57.3301 161.8 57.8301C162.013 58.3234 162.12 58.8567 162.12 59.4301C162.12 59.9967 162.013 60.5301 161.8 61.0301C161.587 61.5301 161.29 61.9701 160.91 62.3501C160.537 62.7234 160.1 63.0167 159.6 63.2301C159.107 63.4434 158.573 63.5501 158 63.5501ZM158 62.9901C158.493 62.9901 158.953 62.9001 159.38 62.7201C159.813 62.5334 160.193 62.2767 160.52 61.9501C160.847 61.6234 161.1 61.2467 161.28 60.8201C161.467 60.3867 161.56 59.9234 161.56 59.4301C161.56 58.9367 161.467 58.4767 161.28 58.0501C161.1 57.6167 160.847 57.2367 160.52 56.9101C160.193 56.5834 159.813 56.3301 159.38 56.1501C158.953 55.9634 158.493 55.8701 158 55.8701C157.507 55.8701 157.043 55.9634 156.61 56.1501C156.183 56.3301 155.807 56.5834 155.48 56.9101C155.153 57.2367 154.897 57.6167 154.71 58.0501C154.53 58.4767 154.44 58.9367 154.44 59.4301C154.44 59.9234 154.53 60.3867 154.71 60.8201C154.897 61.2467 155.153 61.6234 155.48 61.9501C155.807 62.2767 156.183 62.5334 156.61 62.7201C157.043 62.9001 157.507 62.9901 158 62.9901Z" fill="black" fill-opacity="0.5"/>
<path d="M148.355 59.86C148.362 59.82 148.375 59.7933 148.395 59.78C148.422 59.76 148.469 59.75 148.535 59.75C148.602 59.75 148.652 59.76 148.685 59.78C148.719 59.7933 148.749 59.8333 148.775 59.9C148.789 59.94 148.799 59.9833 148.805 60.03C148.819 60.07 148.829 60.1133 148.835 60.16C148.842 60.2667 148.849 60.42 148.855 60.62C148.862 60.6867 148.865 60.7467 148.865 60.8C148.872 60.8533 148.875 60.9033 148.875 60.95C148.882 60.9967 148.885 61.04 148.885 61.08C148.892 61.1133 148.895 61.1467 148.895 61.18C148.902 61.2067 148.909 61.23 148.915 61.25C148.922 61.27 148.925 61.2867 148.925 61.3C148.932 61.3133 148.939 61.32 148.945 61.32C148.972 61.34 149.025 61.3167 149.105 61.25C149.185 61.1767 149.225 61.1233 149.225 61.09C149.225 61.01 149.335 60.8467 149.555 60.6C149.782 60.3533 149.942 60.22 150.035 60.2C150.102 60.18 150.165 60.1867 150.225 60.22C150.285 60.2467 150.349 60.2967 150.415 60.37C150.462 60.4167 150.502 60.47 150.535 60.53C150.569 60.5833 150.595 60.6433 150.615 60.71C150.635 60.77 150.652 60.8367 150.665 60.91C150.672 60.9233 150.675 60.9433 150.675 60.97C150.682 60.99 150.689 61.0133 150.695 61.04C150.709 61.0667 150.722 61.1 150.735 61.14C150.749 61.1733 150.762 61.21 150.775 61.25C150.842 61.41 150.885 61.5033 150.905 61.53H150.915C150.929 61.5367 150.969 61.53 151.035 61.51C151.102 61.49 151.189 61.3733 151.295 61.16C151.422 60.9067 151.532 60.7467 151.625 60.68C151.725 60.6067 151.842 60.6 151.975 60.66C152.055 60.7 152.112 60.75 152.145 60.81C152.179 60.87 152.229 61 152.295 61.2C152.309 61.2667 152.339 61.3633 152.385 61.49C152.439 61.61 152.509 61.76 152.595 61.94C152.762 62.3 152.845 62.4967 152.845 62.53C152.845 62.5633 152.799 62.6333 152.705 62.74C152.639 62.8 152.592 62.8333 152.565 62.84C152.545 62.8467 152.515 62.84 152.475 62.82C152.429 62.7867 152.379 62.7133 152.325 62.6C152.279 62.48 152.255 62.37 152.255 62.27C152.255 62.1833 152.225 62.1033 152.165 62.03C152.112 61.9567 152.049 61.82 151.975 61.62C151.929 61.5 151.889 61.4233 151.855 61.39C151.842 61.37 151.825 61.3567 151.805 61.35C151.785 61.3367 151.762 61.33 151.735 61.33C151.662 61.33 151.612 61.3633 151.585 61.43C151.505 61.63 151.439 61.79 151.385 61.91C151.339 62.03 151.292 62.1367 151.245 62.23C151.225 62.2633 151.209 62.2933 151.195 62.32C151.182 62.3467 151.169 62.3733 151.155 62.4C151.142 62.42 151.132 62.4367 151.125 62.45C151.092 62.4967 151.059 62.53 151.025 62.55C151.005 62.5633 150.989 62.5733 150.975 62.58C150.962 62.5867 150.949 62.59 150.935 62.59C150.922 62.59 150.905 62.5867 150.885 62.58C150.872 62.5733 150.855 62.5633 150.835 62.55C150.762 62.5233 150.712 62.4667 150.685 62.38C150.679 62.3333 150.665 62.2867 150.645 62.24C150.632 62.1867 150.615 62.13 150.595 62.07C150.575 62.0167 150.559 61.9667 150.545 61.92C150.539 61.8733 150.535 61.83 150.535 61.79C150.535 61.79 150.535 61.7867 150.535 61.78C150.535 61.7667 150.532 61.7567 150.525 61.75C150.525 61.7433 150.522 61.7333 150.515 61.72C150.515 61.7067 150.512 61.6933 150.505 61.68C150.505 61.6667 150.502 61.6533 150.495 61.64C150.495 61.6267 150.492 61.6133 150.485 61.6C150.479 61.58 150.472 61.56 150.465 61.54C150.459 61.52 150.452 61.5 150.445 61.48C150.439 61.46 150.432 61.44 150.425 61.42C150.352 61.22 150.285 61.0533 150.225 60.92V60.91C150.165 60.8167 150.105 60.77 150.045 60.77C150.005 60.77 149.925 60.84 149.805 60.98C149.692 61.12 149.635 61.22 149.635 61.28C149.635 61.32 149.605 61.3833 149.545 61.47C149.532 61.4833 149.515 61.51 149.495 61.55C149.475 61.5833 149.452 61.6267 149.425 61.68C149.405 61.7267 149.382 61.7833 149.355 61.85C149.335 61.91 149.309 61.9833 149.275 62.07C149.215 62.2367 149.159 62.37 149.105 62.47C149.052 62.5633 148.999 62.6267 148.945 62.66C148.865 62.7067 148.785 62.66 148.705 62.52C148.679 62.48 148.652 62.4033 148.625 62.29C148.599 62.17 148.572 62.0167 148.545 61.83C148.525 61.6367 148.502 61.41 148.475 61.15C148.449 60.8367 148.419 60.5767 148.385 60.37C148.365 60.2367 148.352 60.13 148.345 60.05C148.345 59.9633 148.349 59.9033 148.355 59.87V59.86Z" fill="black" fill-opacity="0.5"/>
<path d="M144.496 62.6501C144.356 62.5301 144.28 62.4301 144.266 62.3501C144.26 62.3168 144.25 62.2801 144.236 62.2401C144.223 62.2001 144.206 62.1634 144.186 62.1301C144.173 62.1034 144.163 62.0601 144.156 62.0001C144.15 61.9401 144.143 61.8701 144.136 61.7901C144.136 61.7034 144.136 61.6001 144.136 61.4801C144.136 61.3401 144.14 61.2168 144.146 61.1101C144.16 60.9968 144.173 60.9034 144.186 60.8301C144.226 60.6701 144.29 60.5368 144.376 60.4301C144.436 60.3634 144.496 60.2668 144.556 60.1401C144.623 60.0268 144.753 59.8634 144.946 59.6501C145.14 59.4368 145.283 59.3068 145.376 59.2601C145.456 59.2201 145.566 59.1968 145.706 59.1901C145.773 59.1834 145.833 59.1868 145.886 59.2001C145.946 59.2068 145.996 59.2201 146.036 59.2401C146.11 59.2734 146.176 59.3201 146.236 59.3801C146.296 59.4401 146.35 59.5101 146.396 59.5901C146.443 59.6701 146.486 59.7634 146.526 59.8701C146.533 59.9034 146.54 59.9334 146.546 59.9601C146.56 59.9868 146.57 60.0134 146.576 60.0401C146.59 60.0668 146.6 60.0934 146.606 60.1201C146.62 60.1401 146.63 60.1634 146.636 60.1901C146.643 60.2101 146.65 60.2301 146.656 60.2501C146.67 60.2634 146.68 60.2801 146.686 60.3001C146.733 60.3868 146.766 60.4801 146.786 60.5801C146.8 60.6601 146.87 60.8068 146.996 61.0201C147.076 61.1668 147.18 61.3501 147.306 61.5701C147.486 61.9168 147.636 62.1468 147.756 62.2601L147.926 62.3401C148.04 62.3534 148.076 62.4301 148.036 62.5701C147.99 62.7034 147.91 62.7701 147.796 62.7701C147.73 62.7634 147.65 62.7268 147.556 62.6601C147.483 62.6068 147.416 62.5401 147.356 62.4601C147.343 62.4468 147.33 62.4301 147.316 62.4101C147.303 62.3834 147.286 62.3568 147.266 62.3301C147.246 62.2968 147.223 62.2634 147.196 62.2301C147.176 62.1901 147.153 62.1501 147.126 62.1101C147.106 62.0701 147.08 62.0268 147.046 61.9801C146.993 61.8934 146.96 61.8334 146.946 61.8001C146.933 61.7668 146.906 61.7368 146.866 61.7101C146.853 61.6968 146.84 61.6868 146.826 61.6801C146.813 61.6734 146.803 61.6701 146.796 61.6701C146.783 61.6768 146.753 61.6934 146.706 61.7201C146.68 61.7401 146.653 61.7568 146.626 61.7701C146.606 61.7834 146.59 61.8001 146.576 61.8201C146.563 61.8268 146.55 61.8368 146.536 61.8501C146.53 61.8568 146.516 61.8701 146.496 61.8901C146.483 61.9034 146.463 61.9201 146.436 61.9401C146.416 61.9534 146.396 61.9734 146.376 62.0001C146.103 62.2534 145.923 62.4101 145.836 62.4701C145.436 62.7168 145.176 62.8401 145.056 62.8401C145.016 62.8401 144.956 62.8301 144.876 62.8101C144.836 62.7968 144.796 62.7834 144.756 62.7701C144.723 62.7568 144.686 62.7434 144.646 62.7301C144.613 62.7101 144.583 62.6968 144.556 62.6901C144.536 62.6768 144.516 62.6634 144.496 62.6501ZM145.006 62.3901L145.206 62.3201C145.306 62.2868 145.413 62.2368 145.526 62.1701C145.54 62.1634 145.556 62.1534 145.576 62.1401C145.596 62.1268 145.613 62.1168 145.626 62.1101C145.646 62.0968 145.666 62.0834 145.686 62.0701C145.706 62.0568 145.723 62.0468 145.736 62.0401C145.756 62.0268 145.773 62.0134 145.786 62.0001C145.806 61.9868 145.823 61.9734 145.836 61.9601C145.89 61.9201 145.94 61.8801 145.986 61.8401C146.033 61.8001 146.08 61.7568 146.126 61.7101C146.213 61.6168 146.283 61.5268 146.336 61.4401C146.396 61.3534 146.43 61.2868 146.436 61.2401C146.45 61.1934 146.453 61.0934 146.446 60.9401C146.446 60.7334 146.416 60.5634 146.356 60.4301C146.316 60.3234 146.28 60.2134 146.246 60.1001C146.24 60.0601 146.226 60.0201 146.206 59.9801C146.193 59.9401 146.176 59.9068 146.156 59.8801C146.136 59.8468 146.113 59.8168 146.086 59.7901C146.06 59.7568 146.033 59.7301 146.006 59.7101C145.82 59.5768 145.64 59.5734 145.466 59.7001C145.353 59.7734 145.28 59.8168 145.246 59.8301C145.246 59.8301 145.24 59.8368 145.226 59.8501C145.213 59.8568 145.2 59.8668 145.186 59.8801C145.173 59.8868 145.166 59.8934 145.166 59.9001C145.166 59.9134 145.153 59.9368 145.126 59.9701C145.106 59.9968 145.07 60.0468 145.016 60.1201C144.91 60.2401 144.796 60.4234 144.676 60.6701C144.636 60.7568 144.603 60.8334 144.576 60.9001C144.55 60.9601 144.533 61.0068 144.526 61.0401C144.52 61.0601 144.513 61.0868 144.506 61.1201C144.506 61.1534 144.503 61.1934 144.496 61.2401C144.496 61.2868 144.493 61.3368 144.486 61.3901C144.486 61.4768 144.486 61.5501 144.486 61.6101C144.493 61.6701 144.5 61.7201 144.506 61.7601C144.52 61.8334 144.56 61.9601 144.626 62.1401C144.64 62.2001 144.706 62.2568 144.826 62.3101L145.006 62.3901Z" fill="black" fill-opacity="0.5"/>
<path d="M141.384 60.9401C141.364 60.9868 141.357 61.1034 141.364 61.2901C141.37 61.4768 141.384 61.6068 141.404 61.6801C141.424 61.7601 141.47 61.8768 141.544 62.0301C141.584 62.1234 141.62 62.1901 141.654 62.2301C141.667 62.2434 141.68 62.2568 141.694 62.2701C141.707 62.2768 141.724 62.2868 141.744 62.3001C141.764 62.3134 141.787 62.3268 141.814 62.3401C141.834 62.3534 141.854 62.3634 141.874 62.3701C141.894 62.3768 141.91 62.3834 141.924 62.3901C141.95 62.3968 142.007 62.4034 142.094 62.4101C142.18 62.4168 142.27 62.4201 142.364 62.4201H142.864C143.17 62.4201 143.397 62.4234 143.544 62.4301C143.69 62.4368 143.77 62.4501 143.784 62.4701C143.837 62.5168 143.85 62.5734 143.824 62.6401C143.81 62.6668 143.787 62.6934 143.754 62.7201C143.727 62.7468 143.694 62.7701 143.654 62.7901C143.587 62.8168 143.497 62.8334 143.384 62.8401C143.277 62.8468 143.047 62.8468 142.694 62.8401C142.247 62.8334 141.947 62.8168 141.794 62.7901C141.647 62.7568 141.52 62.6901 141.414 62.5901C141.254 62.4434 141.11 62.1801 140.984 61.8001C140.944 61.6668 140.92 61.5001 140.914 61.3001C140.907 61.1068 140.927 60.9801 140.974 60.9201C141.014 60.8734 141.034 60.7968 141.034 60.6901C141.034 60.5768 141.054 60.5068 141.094 60.4801L141.144 60.3901C141.144 60.3701 141.164 60.3201 141.204 60.2401C141.244 60.1534 141.29 60.0601 141.344 59.9601C141.37 59.9134 141.394 59.8734 141.414 59.8401C141.44 59.8001 141.464 59.7668 141.484 59.7401C141.504 59.7134 141.527 59.6868 141.554 59.6601C141.58 59.6268 141.614 59.5968 141.654 59.5701C141.72 59.5034 141.79 59.4468 141.864 59.4001C141.884 59.3801 141.904 59.3668 141.924 59.3601C141.944 59.3468 141.964 59.3368 141.984 59.3301C142.004 59.3234 142.02 59.3168 142.034 59.3101C142.1 59.2901 142.25 59.2834 142.484 59.2901C142.604 59.2901 142.7 59.2934 142.774 59.3001C142.854 59.3068 142.91 59.3134 142.944 59.3201C143.19 59.3868 143.374 59.5634 143.494 59.8501C143.56 59.9901 143.594 60.1268 143.594 60.2601C143.6 60.3934 143.577 60.5234 143.524 60.6501C143.51 60.6834 143.49 60.7168 143.464 60.7501C143.444 60.7834 143.417 60.8201 143.384 60.8601C143.357 60.8934 143.32 60.9301 143.274 60.9701C143.154 61.0834 143.047 61.1501 142.954 61.1701C142.82 61.2034 142.624 61.2101 142.364 61.1901C142.104 61.1701 141.954 61.1368 141.914 61.0901C141.887 61.0568 141.854 61.0401 141.814 61.0401C141.774 61.0401 141.72 61.0134 141.654 60.9601C141.62 60.9401 141.59 60.9234 141.564 60.9101C141.537 60.8968 141.51 60.8901 141.484 60.8901C141.43 60.8834 141.397 60.9001 141.384 60.9401ZM143.074 59.7801C143.04 59.7468 143.01 59.7201 142.984 59.7001C142.964 59.6801 142.944 59.6701 142.924 59.6701C142.91 59.6634 142.877 59.6601 142.824 59.6601C142.777 59.6534 142.71 59.6501 142.624 59.6501C142.577 59.6501 142.53 59.6534 142.484 59.6601C142.444 59.6601 142.407 59.6634 142.374 59.6701C142.34 59.6701 142.307 59.6768 142.274 59.6901C142.247 59.6968 142.22 59.7034 142.194 59.7101C142.094 59.7501 141.987 59.8368 141.874 59.9701C141.82 60.0234 141.777 60.0768 141.744 60.1301C141.684 60.2234 141.66 60.3101 141.674 60.3901C141.694 60.4634 141.754 60.5301 141.854 60.5901C142.067 60.7234 142.317 60.7901 142.604 60.7901C142.684 60.7968 142.754 60.7968 142.814 60.7901C142.874 60.7768 142.924 60.7634 142.964 60.7501C143.004 60.7301 143.037 60.7034 143.064 60.6701C143.097 60.6301 143.124 60.5834 143.144 60.5301C143.27 60.2168 143.247 59.9668 143.074 59.7801Z" fill="black" fill-opacity="0.5"/>
<path d="M139.043 60.59C138.963 60.61 138.91 60.6833 138.883 60.81C138.883 60.8233 138.883 60.84 138.883 60.86C138.883 60.8733 138.883 60.8867 138.883 60.9C138.883 60.9133 138.883 60.9267 138.883 60.94C138.883 60.9533 138.883 60.9667 138.883 60.98C138.89 60.9933 138.893 61.0067 138.893 61.02C138.9 61.0333 138.903 61.0467 138.903 61.06C138.937 61.1467 138.953 61.3833 138.953 61.77C138.953 61.9633 138.96 62.1133 138.973 62.22C138.993 62.3267 139.017 62.39 139.043 62.41C139.063 62.4233 139.087 62.4333 139.113 62.44C139.147 62.4467 139.183 62.4533 139.223 62.46C139.263 62.46 139.31 62.46 139.363 62.46C139.423 62.46 139.487 62.46 139.553 62.46C139.62 62.4533 139.693 62.4467 139.773 62.44C139.853 62.4333 139.94 62.4233 140.033 62.41C140.12 62.3967 140.18 62.3933 140.213 62.4C140.247 62.4067 140.287 62.4333 140.333 62.48L140.433 62.59L140.203 62.84H139.553C139.333 62.84 139.16 62.8367 139.033 62.83C138.913 62.8233 138.837 62.81 138.803 62.79C138.777 62.7833 138.753 62.7733 138.733 62.76C138.713 62.74 138.693 62.72 138.673 62.7C138.66 62.6733 138.643 62.6433 138.623 62.61C138.583 62.5367 138.557 62.4433 138.543 62.33C138.537 62.2167 138.527 61.9667 138.513 61.58C138.507 61.16 138.5 60.9033 138.493 60.81C138.48 60.7167 138.453 60.65 138.413 60.61C138.393 60.59 138.37 60.5733 138.343 60.56C138.317 60.5467 138.283 60.5367 138.243 60.53C138.203 60.5167 138.157 60.5067 138.103 60.5C138.09 60.5 138.077 60.5 138.063 60.5C138.05 60.4933 138.033 60.49 138.013 60.49C137.993 60.49 137.973 60.4867 137.953 60.48C137.88 60.4733 137.8 60.4667 137.713 60.46C137.627 60.4533 137.553 60.4467 137.493 60.44C137.26 60.42 137.08 60.3867 136.953 60.34C136.833 60.2933 136.767 60.23 136.753 60.15C136.747 60.0567 136.773 60 136.833 59.98C136.887 59.9533 136.993 59.95 137.153 59.97C137.24 59.9833 137.323 60 137.403 60.02C137.49 60.04 137.57 60.06 137.643 60.08C137.783 60.12 137.93 60.14 138.083 60.14C138.163 60.14 138.23 60.1367 138.283 60.13C138.337 60.1233 138.373 60.11 138.393 60.09C138.407 60.0767 138.42 60.0633 138.433 60.05C138.433 60.0367 138.437 60.0233 138.443 60.01C138.45 59.99 138.453 59.9667 138.453 59.94C138.46 59.9133 138.467 59.8833 138.473 59.85C138.48 59.8167 138.487 59.78 138.493 59.74C138.5 59.7 138.503 59.6533 138.503 59.6C138.51 59.54 138.513 59.47 138.513 59.39C138.533 59.13 138.553 58.91 138.573 58.73C138.6 58.5433 138.627 58.3967 138.653 58.29C138.68 58.1767 138.71 58.1033 138.743 58.07C138.837 58.01 138.89 57.98 138.903 57.98C138.957 57.9733 139 58 139.033 58.06C139.047 58.0867 139.057 58.12 139.063 58.16C139.07 58.2 139.073 58.2533 139.073 58.32C139.073 58.36 139.07 58.3967 139.063 58.43C139.063 58.4633 139.06 58.4933 139.053 58.52C139.047 58.5467 139.04 58.57 139.033 58.59C138.987 58.6967 138.937 59.0933 138.883 59.78C138.87 59.9333 138.877 60.03 138.903 60.07C138.93 60.1033 139.203 60.1233 139.723 60.13C140.243 60.1367 140.52 60.1533 140.553 60.18C140.567 60.1933 140.577 60.2067 140.583 60.22C140.59 60.2267 140.593 60.2367 140.593 60.25C140.6 60.2633 140.603 60.2767 140.603 60.29C140.61 60.3033 140.613 60.3167 140.613 60.33C140.607 60.39 140.587 60.44 140.553 60.48C140.54 60.5 140.517 60.5167 140.483 60.53C140.457 60.5367 140.423 60.5433 140.383 60.55C140.363 60.55 140.333 60.55 140.293 60.55C140.26 60.55 140.217 60.55 140.163 60.55C140.11 60.55 140.05 60.5533 139.983 60.56C139.917 60.56 139.843 60.56 139.763 60.56C139.683 60.56 139.607 60.56 139.533 60.56C139.467 60.56 139.407 60.56 139.353 60.56C139.3 60.56 139.25 60.5633 139.203 60.57C139.163 60.57 139.13 60.5733 139.103 60.58C139.077 60.58 139.057 60.5833 139.043 60.59Z" fill="black" fill-opacity="0.5"/>
<path d="M129.906 62.6501C129.766 62.5301 129.69 62.4301 129.676 62.3501C129.67 62.3168 129.66 62.2801 129.646 62.2401C129.633 62.2001 129.616 62.1634 129.596 62.1301C129.583 62.1034 129.573 62.0601 129.566 62.0001C129.56 61.9401 129.553 61.8701 129.546 61.7901C129.546 61.7034 129.546 61.6001 129.546 61.4801C129.546 61.3401 129.55 61.2168 129.556 61.1101C129.57 60.9968 129.583 60.9034 129.596 60.8301C129.636 60.6701 129.7 60.5368 129.786 60.4301C129.846 60.3634 129.906 60.2668 129.966 60.1401C130.033 60.0268 130.163 59.8634 130.356 59.6501C130.55 59.4368 130.693 59.3068 130.786 59.2601C130.866 59.2201 130.976 59.1968 131.116 59.1901C131.183 59.1834 131.243 59.1868 131.296 59.2001C131.356 59.2068 131.406 59.2201 131.446 59.2401C131.52 59.2734 131.586 59.3201 131.646 59.3801C131.706 59.4401 131.76 59.5101 131.806 59.5901C131.853 59.6701 131.896 59.7634 131.936 59.8701C131.943 59.9034 131.95 59.9334 131.956 59.9601C131.97 59.9868 131.98 60.0134 131.986 60.0401C132 60.0668 132.01 60.0934 132.016 60.1201C132.03 60.1401 132.04 60.1634 132.046 60.1901C132.053 60.2101 132.06 60.2301 132.066 60.2501C132.08 60.2634 132.09 60.2801 132.096 60.3001C132.143 60.3868 132.176 60.4801 132.196 60.5801C132.21 60.6601 132.28 60.8068 132.406 61.0201C132.486 61.1668 132.59 61.3501 132.716 61.5701C132.896 61.9168 133.046 62.1468 133.166 62.2601L133.336 62.3401C133.45 62.3534 133.486 62.4301 133.446 62.5701C133.4 62.7034 133.32 62.7701 133.206 62.7701C133.14 62.7634 133.06 62.7268 132.966 62.6601C132.893 62.6068 132.826 62.5401 132.766 62.4601C132.753 62.4468 132.74 62.4301 132.726 62.4101C132.713 62.3834 132.696 62.3568 132.676 62.3301C132.656 62.2968 132.633 62.2634 132.606 62.2301C132.586 62.1901 132.563 62.1501 132.536 62.1101C132.516 62.0701 132.49 62.0268 132.456 61.9801C132.403 61.8934 132.37 61.8334 132.356 61.8001C132.343 61.7668 132.316 61.7368 132.276 61.7101C132.263 61.6968 132.25 61.6868 132.236 61.6801C132.223 61.6734 132.213 61.6701 132.206 61.6701C132.193 61.6768 132.163 61.6934 132.116 61.7201C132.09 61.7401 132.063 61.7568 132.036 61.7701C132.016 61.7834 132 61.8001 131.986 61.8201C131.973 61.8268 131.96 61.8368 131.946 61.8501C131.94 61.8568 131.926 61.8701 131.906 61.8901C131.893 61.9034 131.873 61.9201 131.846 61.9401C131.826 61.9534 131.806 61.9734 131.786 62.0001C131.513 62.2534 131.333 62.4101 131.246 62.4701C130.846 62.7168 130.586 62.8401 130.466 62.8401C130.426 62.8401 130.366 62.8301 130.286 62.8101C130.246 62.7968 130.206 62.7834 130.166 62.7701C130.133 62.7568 130.096 62.7434 130.056 62.7301C130.023 62.7101 129.993 62.6968 129.966 62.6901C129.946 62.6768 129.926 62.6634 129.906 62.6501ZM130.416 62.3901L130.616 62.3201C130.716 62.2868 130.823 62.2368 130.936 62.1701C130.95 62.1634 130.966 62.1534 130.986 62.1401C131.006 62.1268 131.023 62.1168 131.036 62.1101C131.056 62.0968 131.076 62.0834 131.096 62.0701C131.116 62.0568 131.133 62.0468 131.146 62.0401C131.166 62.0268 131.183 62.0134 131.196 62.0001C131.216 61.9868 131.233 61.9734 131.246 61.9601C131.3 61.9201 131.35 61.8801 131.396 61.8401C131.443 61.8001 131.49 61.7568 131.536 61.7101C131.623 61.6168 131.693 61.5268 131.746 61.4401C131.806 61.3534 131.84 61.2868 131.846 61.2401C131.86 61.1934 131.863 61.0934 131.856 60.9401C131.856 60.7334 131.826 60.5634 131.766 60.4301C131.726 60.3234 131.69 60.2134 131.656 60.1001C131.65 60.0601 131.636 60.0201 131.616 59.9801C131.603 59.9401 131.586 59.9068 131.566 59.8801C131.546 59.8468 131.523 59.8168 131.496 59.7901C131.47 59.7568 131.443 59.7301 131.416 59.7101C131.23 59.5768 131.05 59.5734 130.876 59.7001C130.763 59.7734 130.69 59.8168 130.656 59.8301C130.656 59.8301 130.65 59.8368 130.636 59.8501C130.623 59.8568 130.61 59.8668 130.596 59.8801C130.583 59.8868 130.576 59.8934 130.576 59.9001C130.576 59.9134 130.563 59.9368 130.536 59.9701C130.516 59.9968 130.48 60.0468 130.426 60.1201C130.32 60.2401 130.206 60.4234 130.086 60.6701C130.046 60.7568 130.013 60.8334 129.986 60.9001C129.96 60.9601 129.943 61.0068 129.936 61.0401C129.93 61.0601 129.923 61.0868 129.916 61.1201C129.916 61.1534 129.913 61.1934 129.906 61.2401C129.906 61.2868 129.903 61.3368 129.896 61.3901C129.896 61.4768 129.896 61.5501 129.896 61.6101C129.903 61.6701 129.91 61.7201 129.916 61.7601C129.93 61.8334 129.97 61.9601 130.036 62.1401C130.05 62.2001 130.116 62.2568 130.236 62.3101L130.416 62.3901Z" fill="black" fill-opacity="0.5"/>
<path d="M128.764 62.4501L128.604 62.4301C128.591 62.4367 128.564 62.4467 128.524 62.4601C128.484 62.4734 128.438 62.4967 128.384 62.5301C128.238 62.5967 128.124 62.6401 128.044 62.6601C128.018 62.6667 127.984 62.6767 127.944 62.6901C127.911 62.7034 127.878 62.7234 127.844 62.7501C127.771 62.7901 127.654 62.8201 127.494 62.8401C127.441 62.8467 127.391 62.8501 127.344 62.8501C127.304 62.8434 127.271 62.8367 127.244 62.8301C127.184 62.8234 127.104 62.7967 127.004 62.7501C126.858 62.6767 126.731 62.5834 126.624 62.4701C126.491 62.3501 126.394 62.2167 126.334 62.0701C126.308 61.9967 126.294 61.9334 126.294 61.8801C126.294 61.8267 126.308 61.7867 126.334 61.7601C126.361 61.7334 126.404 61.6401 126.464 61.4801C126.611 61.0467 126.888 60.6934 127.294 60.4201C127.368 60.3734 127.428 60.3467 127.474 60.3401C127.488 60.3334 127.504 60.3301 127.524 60.3301C127.551 60.3301 127.578 60.3301 127.604 60.3301C127.638 60.3301 127.671 60.3334 127.704 60.3401C127.871 60.3601 128.021 60.4034 128.154 60.4701C128.174 60.4767 128.191 60.4834 128.204 60.4901C128.224 60.4967 128.241 60.5034 128.254 60.5101C128.268 60.5167 128.278 60.5234 128.284 60.5301C128.298 60.5367 128.308 60.5401 128.314 60.5401C128.321 60.5401 128.328 60.5401 128.334 60.5401C128.341 60.5467 128.348 60.5501 128.354 60.5501C128.368 60.5434 128.378 60.5367 128.384 60.5301C128.398 60.5167 128.414 60.5034 128.434 60.4901C128.481 60.4367 128.504 60.3301 128.504 60.1701C128.511 60.0101 128.494 59.8567 128.454 59.7101C128.421 59.5901 128.398 59.1034 128.384 58.2501C128.371 57.4034 128.381 56.9467 128.414 56.8801C128.454 56.8267 128.514 56.8034 128.594 56.8101C128.674 56.8101 128.731 56.8367 128.764 56.8901C128.784 56.9234 128.801 57.0667 128.814 57.3201C128.828 57.5734 128.838 57.9467 128.844 58.4401C128.884 60.1067 128.938 61.0134 129.004 61.1601C129.011 61.1801 129.018 61.2034 129.024 61.2301C129.031 61.2501 129.034 61.2734 129.034 61.3001C129.041 61.3267 129.044 61.3534 129.044 61.3801C129.044 61.4667 129.058 61.5367 129.084 61.5901C129.138 61.6834 129.188 61.8634 129.234 62.1301C129.241 62.1567 129.241 62.1834 129.234 62.2101C129.234 62.2367 129.228 62.2634 129.214 62.2901C129.208 62.3167 129.194 62.3401 129.174 62.3601C129.114 62.4267 129.054 62.4701 128.994 62.4901C128.941 62.5034 128.864 62.4901 128.764 62.4501ZM126.954 61.4301C126.928 61.4834 126.904 61.5367 126.884 61.5901C126.864 61.6367 126.848 61.6801 126.834 61.7201C126.821 61.7601 126.811 61.7967 126.804 61.8301C126.804 61.8567 126.804 61.8867 126.804 61.9201C126.804 61.9534 126.808 61.9867 126.814 62.0201C126.828 62.0467 126.841 62.0767 126.854 62.1101C126.868 62.1367 126.881 62.1601 126.894 62.1801C126.908 62.2001 126.921 62.2167 126.934 62.2301C126.968 62.2634 127.008 62.2934 127.054 62.3201C127.108 62.3401 127.174 62.3634 127.254 62.3901C127.394 62.4434 127.504 62.4534 127.584 62.4201C127.651 62.3867 127.744 62.3501 127.864 62.3101C127.991 62.2701 128.134 62.1967 128.294 62.0901C128.461 61.9767 128.551 61.8901 128.564 61.8301C128.571 61.8034 128.574 61.7701 128.574 61.7301C128.581 61.6901 128.581 61.6467 128.574 61.6001C128.554 61.4534 128.531 61.3401 128.504 61.2601C128.491 61.2267 128.471 61.1934 128.444 61.1601C128.424 61.1267 128.401 61.1001 128.374 61.0801C128.314 61.0267 128.221 60.9667 128.094 60.9001C127.648 60.6534 127.268 60.8301 126.954 61.4301Z" fill="black" fill-opacity="0.5"/>
<path d="M121.426 60.59C121.346 60.61 121.293 60.6833 121.266 60.81C121.266 60.8233 121.266 60.84 121.266 60.86C121.266 60.8733 121.266 60.8867 121.266 60.9C121.266 60.9133 121.266 60.9267 121.266 60.94C121.266 60.9533 121.266 60.9667 121.266 60.98C121.273 60.9933 121.276 61.0067 121.276 61.02C121.283 61.0333 121.286 61.0467 121.286 61.06C121.32 61.1467 121.336 61.3833 121.336 61.77C121.336 61.9633 121.343 62.1133 121.356 62.22C121.376 62.3267 121.4 62.39 121.426 62.41C121.446 62.4233 121.47 62.4333 121.496 62.44C121.53 62.4467 121.566 62.4533 121.606 62.46C121.646 62.46 121.693 62.46 121.746 62.46C121.806 62.46 121.87 62.46 121.936 62.46C122.003 62.4533 122.076 62.4467 122.156 62.44C122.236 62.4333 122.323 62.4233 122.416 62.41C122.503 62.3967 122.563 62.3933 122.596 62.4C122.63 62.4067 122.67 62.4333 122.716 62.48L122.816 62.59L122.586 62.84H121.936C121.716 62.84 121.543 62.8367 121.416 62.83C121.296 62.8233 121.22 62.81 121.186 62.79C121.16 62.7833 121.136 62.7733 121.116 62.76C121.096 62.74 121.076 62.72 121.056 62.7C121.043 62.6733 121.026 62.6433 121.006 62.61C120.966 62.5367 120.94 62.4433 120.926 62.33C120.92 62.2167 120.91 61.9667 120.896 61.58C120.89 61.16 120.883 60.9033 120.876 60.81C120.863 60.7167 120.836 60.65 120.796 60.61C120.776 60.59 120.753 60.5733 120.726 60.56C120.7 60.5467 120.666 60.5367 120.626 60.53C120.586 60.5167 120.54 60.5067 120.486 60.5C120.473 60.5 120.46 60.5 120.446 60.5C120.433 60.4933 120.416 60.49 120.396 60.49C120.376 60.49 120.356 60.4867 120.336 60.48C120.263 60.4733 120.183 60.4667 120.096 60.46C120.01 60.4533 119.936 60.4467 119.876 60.44C119.643 60.42 119.463 60.3867 119.336 60.34C119.216 60.2933 119.15 60.23 119.136 60.15C119.13 60.0567 119.156 60 119.216 59.98C119.27 59.9533 119.376 59.95 119.536 59.97C119.623 59.9833 119.706 60 119.786 60.02C119.873 60.04 119.953 60.06 120.026 60.08C120.166 60.12 120.313 60.14 120.466 60.14C120.546 60.14 120.613 60.1367 120.666 60.13C120.72 60.1233 120.756 60.11 120.776 60.09C120.79 60.0767 120.803 60.0633 120.816 60.05C120.816 60.0367 120.82 60.0233 120.826 60.01C120.833 59.99 120.836 59.9667 120.836 59.94C120.843 59.9133 120.85 59.8833 120.856 59.85C120.863 59.8167 120.87 59.78 120.876 59.74C120.883 59.7 120.886 59.6533 120.886 59.6C120.893 59.54 120.896 59.47 120.896 59.39C120.916 59.13 120.936 58.91 120.956 58.73C120.983 58.5433 121.01 58.3967 121.036 58.29C121.063 58.1767 121.093 58.1033 121.126 58.07C121.22 58.01 121.273 57.98 121.286 57.98C121.34 57.9733 121.383 58 121.416 58.06C121.43 58.0867 121.44 58.12 121.446 58.16C121.453 58.2 121.456 58.2533 121.456 58.32C121.456 58.36 121.453 58.3967 121.446 58.43C121.446 58.4633 121.443 58.4933 121.436 58.52C121.43 58.5467 121.423 58.57 121.416 58.59C121.37 58.6967 121.32 59.0933 121.266 59.78C121.253 59.9333 121.26 60.03 121.286 60.07C121.313 60.1033 121.586 60.1233 122.106 60.13C122.626 60.1367 122.903 60.1533 122.936 60.18C122.95 60.1933 122.96 60.2067 122.966 60.22C122.973 60.2267 122.976 60.2367 122.976 60.25C122.983 60.2633 122.986 60.2767 122.986 60.29C122.993 60.3033 122.996 60.3167 122.996 60.33C122.99 60.39 122.97 60.44 122.936 60.48C122.923 60.5 122.9 60.5167 122.866 60.53C122.84 60.5367 122.806 60.5433 122.766 60.55C122.746 60.55 122.716 60.55 122.676 60.55C122.643 60.55 122.6 60.55 122.546 60.55C122.493 60.55 122.433 60.5533 122.366 60.56C122.3 60.56 122.226 60.56 122.146 60.56C122.066 60.56 121.99 60.56 121.916 60.56C121.85 60.56 121.79 60.56 121.736 60.56C121.683 60.56 121.633 60.5633 121.586 60.57C121.546 60.57 121.513 60.5733 121.486 60.58C121.46 60.58 121.44 60.5833 121.426 60.59Z" fill="black" fill-opacity="0.5"/>
<path d="M117.524 62.38C117.544 62.38 117.68 62.3467 117.934 62.28C118.074 62.26 118.224 62.2167 118.384 62.15C118.544 62.0767 118.664 62.0634 118.744 62.11C118.83 62.1567 118.854 62.25 118.814 62.39C118.787 62.4967 118.53 62.5967 118.044 62.69C118.004 62.7034 117.917 62.7234 117.784 62.75C117.657 62.7767 117.574 62.7934 117.534 62.8C117.407 62.8267 117.324 62.84 117.284 62.84C117.25 62.84 117.16 62.8267 117.014 62.8C116.807 62.7734 116.657 62.7234 116.564 62.65C116.477 62.5767 116.334 62.4034 116.134 62.13C115.987 61.9167 115.91 61.6434 115.904 61.31C115.904 60.8567 116.067 60.4467 116.394 60.08C116.56 59.8867 116.774 59.7367 117.034 59.63C117.174 59.57 117.29 59.54 117.384 59.54C117.477 59.54 117.6 59.57 117.754 59.63C117.92 59.7034 118.05 59.8 118.144 59.92C118.184 59.9734 118.214 60.0234 118.234 60.07C118.254 60.11 118.264 60.1434 118.264 60.17C118.27 60.1967 118.264 60.2234 118.244 60.25C118.224 60.27 118.197 60.2867 118.164 60.3C118.11 60.32 118.077 60.33 118.064 60.33C118.057 60.33 118.047 60.3267 118.034 60.32C118.027 60.3067 118.02 60.29 118.014 60.27C117.947 60.15 117.877 60.0767 117.804 60.05C117.737 60.0167 117.63 60 117.484 60C117.297 60 117.16 60.02 117.074 60.06C116.987 60.0934 116.877 60.18 116.744 60.32C116.497 60.5734 116.374 60.9067 116.374 61.32C116.374 61.5334 116.42 61.72 116.514 61.88C116.754 62.3267 117.09 62.4934 117.524 62.38Z" fill="black" fill-opacity="0.5"/>
<path d="M113.151 60.9401C113.131 60.9868 113.125 61.1034 113.131 61.2901C113.138 61.4768 113.151 61.6068 113.171 61.6801C113.191 61.7601 113.238 61.8768 113.311 62.0301C113.351 62.1234 113.388 62.1901 113.421 62.2301C113.435 62.2434 113.448 62.2568 113.461 62.2701C113.475 62.2768 113.491 62.2868 113.511 62.3001C113.531 62.3134 113.555 62.3268 113.581 62.3401C113.601 62.3534 113.621 62.3634 113.641 62.3701C113.661 62.3768 113.678 62.3834 113.691 62.3901C113.718 62.3968 113.775 62.4034 113.861 62.4101C113.948 62.4168 114.038 62.4201 114.131 62.4201H114.631C114.938 62.4201 115.165 62.4234 115.311 62.4301C115.458 62.4368 115.538 62.4501 115.551 62.4701C115.605 62.5168 115.618 62.5734 115.591 62.6401C115.578 62.6668 115.555 62.6934 115.521 62.7201C115.495 62.7468 115.461 62.7701 115.421 62.7901C115.355 62.8168 115.265 62.8334 115.151 62.8401C115.045 62.8468 114.815 62.8468 114.461 62.8401C114.015 62.8334 113.715 62.8168 113.561 62.7901C113.415 62.7568 113.288 62.6901 113.181 62.5901C113.021 62.4434 112.878 62.1801 112.751 61.8001C112.711 61.6668 112.688 61.5001 112.681 61.3001C112.675 61.1068 112.695 60.9801 112.741 60.9201C112.781 60.8734 112.801 60.7968 112.801 60.6901C112.801 60.5768 112.821 60.5068 112.861 60.4801L112.911 60.3901C112.911 60.3701 112.931 60.3201 112.971 60.2401C113.011 60.1534 113.058 60.0601 113.111 59.9601C113.138 59.9134 113.161 59.8734 113.181 59.8401C113.208 59.8001 113.231 59.7668 113.251 59.7401C113.271 59.7134 113.295 59.6868 113.321 59.6601C113.348 59.6268 113.381 59.5968 113.421 59.5701C113.488 59.5034 113.558 59.4468 113.631 59.4001C113.651 59.3801 113.671 59.3668 113.691 59.3601C113.711 59.3468 113.731 59.3368 113.751 59.3301C113.771 59.3234 113.788 59.3168 113.801 59.3101C113.868 59.2901 114.018 59.2834 114.251 59.2901C114.371 59.2901 114.468 59.2934 114.541 59.3001C114.621 59.3068 114.678 59.3134 114.711 59.3201C114.958 59.3868 115.141 59.5634 115.261 59.8501C115.328 59.9901 115.361 60.1268 115.361 60.2601C115.368 60.3934 115.345 60.5234 115.291 60.6501C115.278 60.6834 115.258 60.7168 115.231 60.7501C115.211 60.7834 115.185 60.8201 115.151 60.8601C115.125 60.8934 115.088 60.9301 115.041 60.9701C114.921 61.0834 114.815 61.1501 114.721 61.1701C114.588 61.2034 114.391 61.2101 114.131 61.1901C113.871 61.1701 113.721 61.1368 113.681 61.0901C113.655 61.0568 113.621 61.0401 113.581 61.0401C113.541 61.0401 113.488 61.0134 113.421 60.9601C113.388 60.9401 113.358 60.9234 113.331 60.9101C113.305 60.8968 113.278 60.8901 113.251 60.8901C113.198 60.8834 113.165 60.9001 113.151 60.9401ZM114.841 59.7801C114.808 59.7468 114.778 59.7201 114.751 59.7001C114.731 59.6801 114.711 59.6701 114.691 59.6701C114.678 59.6634 114.645 59.6601 114.591 59.6601C114.545 59.6534 114.478 59.6501 114.391 59.6501C114.345 59.6501 114.298 59.6534 114.251 59.6601C114.211 59.6601 114.175 59.6634 114.141 59.6701C114.108 59.6701 114.075 59.6768 114.041 59.6901C114.015 59.6968 113.988 59.7034 113.961 59.7101C113.861 59.7501 113.755 59.8368 113.641 59.9701C113.588 60.0234 113.545 60.0768 113.511 60.1301C113.451 60.2234 113.428 60.3101 113.441 60.3901C113.461 60.4634 113.521 60.5301 113.621 60.5901C113.835 60.7234 114.085 60.7901 114.371 60.7901C114.451 60.7968 114.521 60.7968 114.581 60.7901C114.641 60.7768 114.691 60.7634 114.731 60.7501C114.771 60.7301 114.805 60.7034 114.831 60.6701C114.865 60.6301 114.891 60.5834 114.911 60.5301C115.038 60.2168 115.015 59.9668 114.841 59.7801Z" fill="black" fill-opacity="0.5"/>
<path d="M111.26 57.3001C111.293 57.3335 111.323 57.3635 111.35 57.3901C111.377 57.4101 111.4 57.4268 111.42 57.4401C111.447 57.4468 111.47 57.4501 111.49 57.4501C111.503 57.4501 111.52 57.4535 111.54 57.4601C111.56 57.4668 111.58 57.4768 111.6 57.4901C111.62 57.4968 111.643 57.5101 111.67 57.5301C111.703 57.5568 111.743 57.5768 111.79 57.5901C111.837 57.5968 111.89 57.6001 111.95 57.6001C111.963 57.6001 111.977 57.6001 111.99 57.6001C112.01 57.6001 112.027 57.6035 112.04 57.6101C112.06 57.6101 112.077 57.6135 112.09 57.6201C112.11 57.6201 112.127 57.6268 112.14 57.6401C112.16 57.6468 112.177 57.6535 112.19 57.6601C112.203 57.6668 112.217 57.6768 112.23 57.6901C112.25 57.7035 112.267 57.7168 112.28 57.7301C112.293 57.7435 112.303 57.7568 112.31 57.7701C112.323 57.7835 112.333 57.8001 112.34 57.8201C112.353 57.8335 112.36 57.8468 112.36 57.8601C112.367 57.8735 112.37 57.8901 112.37 57.9101C112.383 57.9768 112.357 58.0368 112.29 58.0901C112.243 58.1235 112.183 58.1268 112.11 58.1001C112.077 58.0935 112.03 58.0835 111.97 58.0701C111.91 58.0568 111.833 58.0435 111.74 58.0301C111.687 58.0301 111.63 58.0201 111.57 58.0001C111.51 57.9801 111.45 57.9568 111.39 57.9301C111.33 57.8968 111.267 57.8601 111.2 57.8201C111 57.6935 110.89 57.6168 110.87 57.5901V57.5801C110.823 57.5468 110.8 57.4835 110.8 57.3901C110.8 57.3368 110.807 57.2935 110.82 57.2601C110.833 57.2201 110.85 57.1901 110.87 57.1701C110.963 57.0768 111.093 57.1201 111.26 57.3001ZM111.46 63.6001C111.707 63.3535 111.83 62.8201 111.83 62.0001C111.83 61.4601 111.737 61.0035 111.55 60.6301C111.363 60.2501 111.34 60.0168 111.48 59.9301C111.567 59.8635 111.647 59.8468 111.72 59.8801C111.793 59.9135 111.843 59.9901 111.87 60.1101C111.883 60.2101 111.91 60.3035 111.95 60.3901C111.957 60.4035 111.98 60.4568 112.02 60.5501C112.067 60.6435 112.1 60.7135 112.12 60.7601C112.153 60.8335 112.177 60.9035 112.19 60.9701C112.203 61.0301 112.213 61.1201 112.22 61.2401C112.22 61.2668 112.22 61.2968 112.22 61.3301C112.227 61.3568 112.23 61.3901 112.23 61.4301C112.23 61.4635 112.23 61.5035 112.23 61.5501C112.23 61.5901 112.23 61.6335 112.23 61.6801C112.23 61.7268 112.23 61.7768 112.23 61.8301C112.25 62.4035 112.233 62.7768 112.18 62.9501C112.153 63.0435 112.133 63.1201 112.12 63.1801C112.113 63.2401 112.11 63.2901 112.11 63.3301C112.11 63.3968 112.077 63.4835 112.01 63.5901C111.923 63.7101 111.803 63.8435 111.65 63.9901C111.577 64.0635 111.51 64.1201 111.45 64.1601C111.397 64.2001 111.353 64.2235 111.32 64.2301C111.28 64.2368 111.24 64.2435 111.2 64.2501C111.16 64.2635 111.12 64.2801 111.08 64.3001C110.907 64.3668 110.647 64.3201 110.3 64.1601C110.193 64.1068 110.097 64.0601 110.01 64.0201C109.93 63.9868 109.857 63.9635 109.79 63.9501C109.623 63.8835 109.457 63.7768 109.29 63.6301C109.263 63.6035 109.137 63.4668 108.91 63.2201L108.56 62.8501V62.5601L108.58 62.3201C108.593 62.2735 108.627 62.2235 108.68 62.1701C108.773 62.0901 108.893 62.0501 109.04 62.0501C109.1 62.0501 109.16 62.0568 109.22 62.0701C109.287 62.0835 109.35 62.1001 109.41 62.1201C109.543 62.1735 109.61 62.2235 109.61 62.2701C109.61 62.3101 109.553 62.3468 109.44 62.3801C109.333 62.4068 109.24 62.4501 109.16 62.5101C109.073 62.5701 109.03 62.6235 109.03 62.6701C109.03 62.7501 109.123 62.8968 109.31 63.1101C109.503 63.3168 109.683 63.4668 109.85 63.5601C110.063 63.6935 110.34 63.7901 110.68 63.8501C110.767 63.8568 110.903 63.8335 111.09 63.7801C111.277 63.7201 111.4 63.6601 111.46 63.6001Z" fill="black" fill-opacity="0.5"/>
<path d="M106.47 60.11C106.537 60.0233 106.617 59.9533 106.71 59.9C106.81 59.84 106.89 59.8067 106.95 59.8C107.01 59.7933 107.117 59.8067 107.27 59.84C107.543 59.9133 107.75 60.02 107.89 60.16C108.037 60.3 108.15 60.5067 108.23 60.78C108.237 60.8133 108.243 60.8433 108.25 60.87C108.257 60.89 108.26 60.9133 108.26 60.94C108.26 60.96 108.26 60.9767 108.26 60.99C108.253 61.0167 108.24 61.0567 108.22 61.11C108.207 61.1633 108.187 61.2267 108.16 61.3C108.08 61.5133 107.997 61.67 107.91 61.77C107.823 61.8633 107.633 62.03 107.34 62.27C107.313 62.2967 107.25 62.3333 107.15 62.38C107.057 62.4267 106.95 62.4767 106.83 62.53C106.717 62.5833 106.6 62.6333 106.48 62.68C106.367 62.7267 106.277 62.76 106.21 62.78C105.99 62.8467 105.727 62.86 105.42 62.82C105.32 62.8067 105.227 62.79 105.14 62.77C105.06 62.7433 104.987 62.7167 104.92 62.69C104.86 62.6633 104.81 62.63 104.77 62.59C104.757 62.5767 104.743 62.5633 104.73 62.55C104.717 62.53 104.703 62.51 104.69 62.49C104.677 62.47 104.66 62.45 104.64 62.43C104.627 62.4033 104.613 62.3767 104.6 62.35C104.587 62.3233 104.573 62.2967 104.56 62.27C104.48 62.1167 104.433 61.98 104.42 61.86C104.367 61.6267 104.433 61.32 104.62 60.94C104.673 60.8333 104.723 60.75 104.77 60.69C104.817 60.63 104.873 60.5733 104.94 60.52C104.973 60.4867 105.013 60.4533 105.06 60.42C105.113 60.3867 105.17 60.35 105.23 60.31C105.683 60.0033 105.993 59.94 106.16 60.12C106.26 60.24 106.363 60.2367 106.47 60.11ZM107.4 60.41C107.24 60.3433 107.133 60.31 107.08 60.31C107.073 60.31 107.063 60.3133 107.05 60.32C107.043 60.32 107.033 60.32 107.02 60.32C107.013 60.32 107.003 60.3233 106.99 60.33C106.983 60.3367 106.973 60.3433 106.96 60.35C106.947 60.35 106.933 60.3533 106.92 60.36C106.907 60.3667 106.893 60.3733 106.88 60.38C106.867 60.3867 106.85 60.3967 106.83 60.41C106.817 60.4167 106.8 60.4267 106.78 60.44C106.62 60.52 106.503 60.54 106.43 60.5H106.42C106.373 60.48 106.317 60.4767 106.25 60.49C106.19 60.4967 106.12 60.5167 106.04 60.55C105.887 60.6033 105.803 60.63 105.79 60.63C105.73 60.63 105.67 60.6433 105.61 60.67C105.55 60.69 105.487 60.7233 105.42 60.77C105.36 60.8167 105.297 60.8733 105.23 60.94C105.03 61.14 104.92 61.34 104.9 61.54C104.893 61.6867 104.9 61.8033 104.92 61.89C104.933 61.9167 104.947 61.9467 104.96 61.98C104.98 62.0067 105.003 62.0367 105.03 62.07C105.057 62.0967 105.087 62.1267 105.12 62.16L105.31 62.35L105.77 62.33C106.037 62.31 106.297 62.26 106.55 62.18C106.677 62.14 106.78 62.0967 106.86 62.05C106.947 62.0033 107.01 61.9533 107.05 61.9C107.083 61.8733 107.153 61.83 107.26 61.77C107.633 61.5833 107.82 61.31 107.82 60.95C107.82 60.91 107.817 60.8733 107.81 60.84C107.803 60.8 107.793 60.7633 107.78 60.73C107.767 60.6967 107.75 60.6667 107.73 60.64C107.67 60.56 107.56 60.4833 107.4 60.41Z" fill="black" fill-opacity="0.5"/>
<path d="M100.641 59.9201C100.668 59.8401 100.708 59.7834 100.761 59.7501C100.814 59.7167 100.848 59.7001 100.861 59.7001C100.881 59.7001 100.898 59.7101 100.911 59.7301C100.931 59.7434 100.951 59.7667 100.971 59.8001C101.004 59.8601 101.021 59.9167 101.021 59.9701C101.021 60.0567 101.078 60.2167 101.191 60.4501C101.298 60.6834 101.358 60.8501 101.371 60.9501C101.391 61.0367 101.424 61.1101 101.471 61.1701C101.498 61.2034 101.521 61.2267 101.541 61.2401C101.568 61.2534 101.598 61.2601 101.631 61.2601C101.678 61.2601 101.728 61.2001 101.781 61.0801C101.834 60.9667 101.924 60.8634 102.051 60.7701C102.344 60.5501 102.621 60.4401 102.881 60.4401C102.974 60.4401 103.068 60.4534 103.161 60.4801C103.261 60.5067 103.364 60.5467 103.471 60.6001C103.578 60.6467 103.688 60.7067 103.801 60.7801C103.948 60.8734 104.038 60.9401 104.071 60.9801C104.104 61.0201 104.108 61.0667 104.081 61.1201C104.041 61.1867 103.944 61.2167 103.791 61.2101C103.711 61.2034 103.631 61.1901 103.551 61.1701C103.478 61.1434 103.408 61.1067 103.341 61.0601C103.181 60.9734 103.008 60.9301 102.821 60.9301C102.681 60.9301 102.591 60.9401 102.551 60.9601C102.511 60.9734 102.454 61.0267 102.381 61.1201C102.114 61.4267 101.968 61.7367 101.941 62.0501C101.914 62.2767 101.888 62.4334 101.861 62.5201C101.848 62.5667 101.828 62.6101 101.801 62.6501C101.781 62.6834 101.758 62.7167 101.731 62.7501C101.638 62.8301 101.561 62.8567 101.501 62.8301C101.481 62.8234 101.464 62.8101 101.451 62.7901C101.438 62.7701 101.424 62.7467 101.411 62.7201C101.404 62.6867 101.398 62.6467 101.391 62.6001C101.364 62.3667 101.284 62.0701 101.151 61.7101C101.118 61.5834 101.081 61.4634 101.041 61.3501C101.021 61.2367 100.961 61.0601 100.861 60.8201C100.834 60.7467 100.808 60.6801 100.781 60.6201C100.761 60.5601 100.741 60.5067 100.721 60.4601C100.701 60.4067 100.684 60.3601 100.671 60.3201C100.658 60.2801 100.648 60.2467 100.641 60.2201C100.634 60.1934 100.628 60.1734 100.621 60.1601C100.601 60.0801 100.608 60.0001 100.641 59.9201Z" fill="black" fill-opacity="0.5"/>
<path d="M98.9327 62.1701C98.8994 62.1701 98.8627 62.1767 98.8227 62.1901C98.7894 62.1967 98.7527 62.2101 98.7127 62.2301L98.5927 62.2901V63.3101C98.5927 63.5367 98.596 63.7301 98.6027 63.8901C98.6094 64.0567 98.616 64.1867 98.6227 64.2801C98.6294 64.3801 98.6394 64.4434 98.6527 64.4701C98.686 64.5367 98.726 64.6567 98.7727 64.8301C98.786 64.8834 98.796 64.9267 98.8027 64.9601C98.816 65.0001 98.8227 65.0301 98.8227 65.0501C98.8227 65.0901 98.8027 65.1501 98.7627 65.2301C98.656 65.4301 98.5227 65.4767 98.3627 65.3701C98.3294 65.3501 98.3027 65.3167 98.2827 65.2701C98.2627 65.2234 98.246 65.1667 98.2327 65.1001C98.226 65.0201 98.2194 64.9467 98.2127 64.8801C98.2127 64.8201 98.2094 64.7634 98.2027 64.7101C98.196 64.6634 98.1894 64.6234 98.1827 64.5901C98.156 64.3701 98.1427 63.9334 98.1427 63.2801C98.136 62.6067 98.1127 62.2101 98.0727 62.0901C98.046 61.9967 98.0327 61.9334 98.0327 61.9001C98.0327 61.8667 98.0494 61.8167 98.0827 61.7501C98.156 61.6101 98.2127 61.3401 98.2527 60.9401C98.2927 60.6667 98.3194 60.4967 98.3327 60.4301C98.3327 60.4101 98.3327 60.3834 98.3327 60.3501C98.3394 60.3167 98.3427 60.2767 98.3427 60.2301C98.3494 60.1767 98.3527 60.1167 98.3527 60.0501C98.3594 59.9834 98.366 59.9101 98.3727 59.8301C98.3727 59.7567 98.3727 59.6934 98.3727 59.6401C98.3794 59.5801 98.386 59.5301 98.3927 59.4901C98.3994 59.4501 98.4027 59.4167 98.4027 59.3901C98.4094 59.3634 98.416 59.3467 98.4227 59.3401C98.4827 59.2734 98.556 59.2634 98.6427 59.3101C98.7227 59.3567 98.7927 59.4434 98.8527 59.5701C98.866 59.6034 98.8794 59.6301 98.8927 59.6501C98.9127 59.6701 98.9327 59.6867 98.9527 59.7001C98.986 59.7267 99.0527 59.7601 99.1527 59.8001C99.3594 59.8801 99.5594 59.9901 99.7527 60.1301C99.946 60.2701 100.093 60.4101 100.193 60.5501C100.246 60.6167 100.279 60.6767 100.293 60.7301C100.306 60.7834 100.313 60.8667 100.313 60.9801C100.313 61.1601 100.296 61.2901 100.263 61.3701C100.189 61.4834 100.006 61.6567 99.7127 61.8901C99.6994 61.8967 99.686 61.9067 99.6727 61.9201C99.6594 61.9267 99.6427 61.9367 99.6227 61.9501C99.6027 61.9567 99.5827 61.9667 99.5627 61.9801C99.5427 61.9867 99.5194 61.9967 99.4927 62.0101C99.466 62.0167 99.4394 62.0267 99.4127 62.0401C99.386 62.0467 99.3594 62.0567 99.3327 62.0701C99.2727 62.0901 99.216 62.1067 99.1627 62.1201C99.116 62.1334 99.0727 62.1467 99.0327 62.1601C98.9927 62.1667 98.9594 62.1701 98.9327 62.1701ZM99.2927 60.3801C99.2127 60.3401 99.1294 60.3134 99.0427 60.3001C98.996 60.2934 98.956 60.2934 98.9227 60.3001C98.8894 60.3067 98.8594 60.3167 98.8327 60.3301C98.8194 60.3367 98.8027 60.3834 98.7827 60.4701C98.7694 60.5501 98.756 60.6634 98.7427 60.8101C98.7094 61.1101 98.6727 61.3167 98.6327 61.4301C98.5994 61.5434 98.5994 61.6167 98.6327 61.6501C98.666 61.6834 98.7494 61.7001 98.8827 61.7001C99.016 61.7001 99.1794 61.6501 99.3727 61.5501C99.726 61.3767 99.8927 61.1867 99.8727 60.9801C99.8594 60.7734 99.666 60.5734 99.2927 60.3801Z" fill="black" fill-opacity="0.5"/>
</svg>
