<svg width="101" height="100" viewBox="0 0 101 100" fill="none" xmlns="http://www.w3.org/2000/svg">
<circle cx="50.875" cy="50" r="50" fill="#C8B6FA"/>
<mask id="mask0_72_103" style="mask-type:alpha" maskUnits="userSpaceOnUse" x="0" y="0" width="101" height="100">
<circle cx="50.875" cy="50" r="50" fill="#C8B6FA"/>
</mask>
<g mask="url(#mask0_72_103)">
<path d="M46.3263 43.9972C34.8164 53.5277 26.4406 65.563 23.6914 70.3893C28.029 70.3893 39.5633 69.1431 50.9999 64.1579C65.2957 57.9264 81.6075 44.6387 83.9901 43.2641C85.8962 42.1644 84.7843 40.24 83.9901 39.4152L80.3245 33.9169C80.3245 33.9169 82.1573 29.5182 82.1573 27.8687L96.8196 16.9636C101.035 17.4829 109.136 16.5237 107.816 8.53277C106.497 0.541815 99.9354 0.9267 96.8196 2.11801C88.8317 7.63165 72.4436 19.0713 70.794 20.7208C69.1445 22.3703 69.6791 23.974 70.1526 24.5697C67.0063 27.0745 57.8362 34.4667 46.3263 43.9972Z" fill="#4A4A4A"/>
<path d="M21.1735 18.8669C22.1974 17.402 25.2704 14.1888 29.372 13.0552M17.5625 22.8364L16.125 24.7114" stroke="white" stroke-width="3" stroke-linecap="round" stroke-linejoin="round"/>
</g>
</svg>
