<svg width="101" height="100" viewBox="0 0 101 100" fill="none" xmlns="http://www.w3.org/2000/svg">
<circle cx="50.875" cy="50" r="50" fill="#FAF3B6"/>
<mask id="mask0_72_73" style="mask-type:alpha" maskUnits="userSpaceOnUse" x="0" y="0" width="101" height="100">
<circle cx="50.875" cy="50" r="50" fill="#FAF3B6"/>
</mask>
<g mask="url(#mask0_72_73)">
<path d="M57.9106 63.588C42.7436 74.2372 35.271 68.7983 31.6406 65.9074C20.5477 55.3187 42.3805 35.4006 53.2718 35.4006C55.8433 35.4006 58.4148 36.1737 59.8267 35.4006C59.8267 35.4006 79.4913 17.3003 96.3324 2.57704C109.805 -9.2016 116.602 -6.29728 118.316 -3.37279C119.964 -0.347452 119.396 3.49335 105.358 8.97929C91.3204 14.4652 73.4575 34.1568 67.1379 40.8462C69.6926 44.4429 73.0776 52.9388 57.9106 63.588Z" fill="#FFB986"/>
<path d="M21.1735 18.8669C22.1974 17.402 25.2704 14.1888 29.372 13.0552M17.5625 22.8364L16.125 24.7114" stroke="white" stroke-width="3" stroke-linecap="round" stroke-linejoin="round"/>
</g>
</svg>
