<svg width="101" height="100" viewBox="0 0 101 100" fill="none" xmlns="http://www.w3.org/2000/svg">
<circle cx="50.875" cy="50" r="50" fill="#D8FAB6"/>
<mask id="mask0_72_95" style="mask-type:alpha" maskUnits="userSpaceOnUse" x="0" y="0" width="101" height="100">
<circle cx="50.875" cy="50" r="50" fill="#D8FAB6"/>
</mask>
<g mask="url(#mask0_72_95)">
<path d="M37.5672 70.2624C41.8403 70.8244 47.6647 69.6526 55.5901 64.088C70.7571 53.4388 67.3721 44.9429 64.8173 41.3462C65.2262 40.9134 65.6834 40.4262 66.1847 39.8919C73.4323 32.1683 89.9081 14.6103 103.037 9.47929C117.075 3.99335 117.643 0.152548 115.996 -2.87279C114.282 -5.79728 107.485 -8.7016 94.0118 3.07704C77.1708 17.8003 57.5061 35.9006 57.5061 35.9006C56.5912 36.4016 55.1892 36.2532 53.6158 36.0868C52.7613 35.9963 51.8563 35.9006 50.9512 35.9006C42.0312 35.9006 25.7717 49.2613 26.2725 59.9147L40.1904 48.4529L41.5879 50.1483L28.5522 65.5895L30.3162 67.1771C30.66 67.4318 31.0305 67.6929 31.4295 67.9507L46.8801 54.3178L48.0256 55.8986L37.5672 70.2624Z" fill="#85A7FF"/>
<path d="M21.1735 18.8669C22.1974 17.402 25.2704 14.1888 29.372 13.0552M17.5625 22.8364L16.125 24.7114" stroke="white" stroke-width="3" stroke-linecap="round" stroke-linejoin="round"/>
</g>
</svg>
