<svg width="101" height="100" viewBox="0 0 101 100" fill="none" xmlns="http://www.w3.org/2000/svg">
<circle cx="50.875" cy="50" r="50" fill="#FAB6B6"/>
<mask id="mask0_72_101" style="mask-type:alpha" maskUnits="userSpaceOnUse" x="0" y="0" width="101" height="100">
<circle cx="50.875" cy="50" r="50" fill="#FAB6B6"/>
</mask>
<g mask="url(#mask0_72_101)">
<path d="M32.4962 69.5806C38.5764 72.1146 45.2621 68.535 57.6506 61.0589C77.0171 49.3719 71.6064 43.5309 68.1886 39.8412C67.6772 39.2891 67.2104 38.7852 66.8779 38.3171C67.2867 37.8843 67.7439 37.3971 68.2453 36.8629C75.4928 29.1392 91.9686 11.5813 105.098 6.45024C119.136 0.964298 119.704 -2.8765 118.056 -5.90184C116.342 -8.82633 109.545 -11.7307 96.0724 0.047986C79.2313 14.7713 59.5667 32.8715 59.5667 32.8715C59.0629 33.1474 58.156 32.7709 57.0454 32.3098C55.0433 31.4787 52.3795 30.3729 50.2236 32.3194C48.4169 33.9507 45.5816 35.8362 42.4232 37.9366C33.1704 44.0897 21.1455 52.0864 24.0936 60.934L26.25 58.875L42.4232 46.4375L43.9459 48.2189L25.375 62.1875L30.0626 67.3257L47.6875 52.75L49.125 54.25C49.125 54.25 42.7379 59.9934 35.75 65.8125C34.9375 65.9375 33.7657 68.4531 32.4962 69.5806Z" fill="#E46161"/>
<path d="M36.125 66.4375L27.75 57.3125C26.3958 56.5625 23.7625 56.2 24.0625 60.75C24.3625 65.3 29.9375 68.5208 32.6875 69.5625L36.125 66.4375Z" fill="#E46161"/>
<path d="M42.5 44.8749C37.2083 48.5208 26.4875 55.8374 25.9375 55.9374C29.4583 59.9166 36.5875 67.8499 36.9375 67.7499C37.2875 67.6499 47.5417 59.4583 52.625 55.3749L42.5 44.8749Z" fill="#E46161"/>
<path d="M46.4219 42.113L30.6528 53.6704C30.1528 55.689 31.6913 55.7317 32.5231 55.5008C36.2715 52.8321 44.6177 46.8555 48.0152 44.2988C51.4128 41.7421 48.3686 41.7763 46.4219 42.113Z" fill="#FAB6B6"/>
<path d="M50.5713 46.1799L34.8022 57.7373C34.3022 59.7559 35.8407 59.7986 36.6725 59.5677C40.4209 56.899 48.7671 50.9224 52.1646 48.3657C55.5622 45.809 52.518 45.8432 50.5713 46.1799Z" fill="#FAB6B6"/>
<path d="M55.3442 50.2809L39.5752 61.8384C39.0751 63.8569 40.6137 63.8997 41.4454 63.6688C45.1938 61 53.54 55.0234 56.9376 52.4667C60.3351 49.91 57.291 49.9443 55.3442 50.2809Z" fill="#FAB6B6"/>
<path d="M21.1735 18.8669C22.1974 17.402 25.2704 14.1888 29.372 13.0552M17.5625 22.8364L16.125 24.7114" stroke="white" stroke-width="3" stroke-linecap="round" stroke-linejoin="round"/>
</g>
</svg>
