<svg width="119" height="106" viewBox="0 0 119 106" fill="none" xmlns="http://www.w3.org/2000/svg">
<circle cx="50" cy="56" r="50" fill="#FAF3B6"/>
<path d="M100 56C100 83.6142 77.6142 106 50 106C22.3858 106 0 83.6142 0 56C0 28.3858 22.3858 6 50 6C77.6142 6 100 28.3858 100 56Z" fill="#FAF3B6"/>
<path d="M57.0359 69.588C41.8689 80.2372 34.3962 74.7983 30.7658 71.9074C19.6729 61.3187 41.5058 41.4006 52.397 41.4006C54.9686 41.4006 57.5401 42.1737 58.9519 41.4006C58.9519 41.4006 78.6166 23.3003 95.4576 8.57704C108.93 -3.2016 115.727 -0.297279 117.442 2.62721C119.089 5.65255 118.521 9.49335 104.483 14.9793C90.4457 20.4652 72.5827 40.1568 66.2631 46.8462C68.8179 50.4429 72.2029 58.9388 57.0359 69.588Z" fill="#FFB986"/>
</svg>
