<svg width="116" height="106" viewBox="0 0 116 106" fill="none" xmlns="http://www.w3.org/2000/svg">
<circle cx="50" cy="56" r="50" fill="#D8FAB6"/>
<path d="M36.6922 76.2624C40.9653 76.8244 46.7897 75.6526 54.7151 70.088C69.8821 59.4388 66.4971 50.9429 63.9423 47.3462C64.3512 46.9134 64.8084 46.4262 65.3097 45.8919C72.5573 38.1683 89.0331 20.6103 102.162 15.4793C116.2 9.99335 116.768 6.15255 115.121 3.12721C113.407 0.202721 106.61 -2.7016 93.1368 9.07704C76.2958 23.8003 56.6311 41.9006 56.6311 41.9006C55.7162 42.4016 54.3142 42.2532 52.7408 42.0868C51.8863 41.9963 50.9813 41.9006 50.0762 41.9006C41.1562 41.9006 24.8967 55.2613 25.3975 65.9147L39.3154 54.4529L40.7129 56.1483L27.6772 71.5895L29.4412 73.1771C29.785 73.4318 30.1555 73.6929 30.5545 73.9507L46.0051 60.3178L47.1506 61.8986L36.6922 76.2624Z" fill="#85A7FF"/>
</svg>
