<svg width="119" height="109" viewBox="0 0 119 109" fill="none" xmlns="http://www.w3.org/2000/svg">
<path d="M101 59C101 86.6142 78.6142 109 51 109C23.3858 109 1 86.6142 1 59C1 31.3858 23.3858 9 51 9C78.6142 9 101 31.3858 101 59Z" fill="#FAB6B6"/>
<path d="M32.6212 78.5806C38.7014 81.1146 45.3871 77.535 57.7756 70.0589C77.1421 58.3719 71.7314 52.5309 68.3136 48.8412C67.8022 48.2891 67.3354 47.7852 67.0029 47.3171C67.4117 46.8843 67.8689 46.3971 68.3703 45.8629C75.6178 38.1392 92.0936 20.5813 105.223 15.4502C119.261 9.9643 119.829 6.1235 118.181 3.09816C116.467 0.173669 109.67 -2.73065 96.1974 9.04799C79.3563 23.7713 59.6917 41.8715 59.6917 41.8715C59.1879 42.1474 58.281 41.7709 57.1704 41.3098C55.1683 40.4787 52.5045 39.3729 50.3486 41.3194C48.5419 42.9507 45.7066 44.8362 42.5482 46.9366C33.2954 53.0897 21.2705 61.0864 24.2186 69.934L28.4006 65.6955L42.009 54.3781L44.0709 57.2189L27.3926 73.1641L30.1876 76.3257L47.9656 60.7928L49.7526 63.3129C49.7526 63.3129 43.7735 69.1778 36.7856 74.9969C35.2899 76.2424 33.8907 77.4531 32.6212 78.5806Z" fill="#E46161"/>
<path d="M100.875 59C100.875 86.6142 78.4892 109 50.875 109C23.2608 109 0.875 86.6142 0.875 59C0.875 31.3858 23.2608 9 50.875 9C78.4892 9 100.875 31.3858 100.875 59Z" fill="#FAB6B6"/>
<path d="M100.875 59C100.875 86.6142 78.4892 109 50.875 109C23.2608 109 0.875 86.6142 0.875 59C0.875 31.3858 23.2608 9 50.875 9C78.4892 9 100.875 31.3858 100.875 59Z" fill="#FAB6B6"/>
<path d="M32.4962 78.5806C38.5764 81.1146 45.2621 77.535 57.6506 70.0589C77.0171 58.3719 71.6064 52.5309 68.1886 48.8412C67.6772 48.2891 67.2104 47.7852 66.8779 47.3171C67.2867 46.8843 67.7439 46.3971 68.2453 45.8629C75.4928 38.1392 91.9686 20.5813 105.098 15.4502C119.136 9.9643 119.704 6.1235 118.056 3.09816C116.342 0.173669 109.545 -2.73065 96.0724 9.04799C79.2313 23.7713 59.5667 41.8715 59.5667 41.8715C59.0629 42.1474 58.156 41.7709 57.0454 41.3098C55.0433 40.4787 52.3795 39.3729 50.2236 41.3194C48.4169 42.9507 45.5816 44.8362 42.4232 46.9366C33.1704 53.0897 21.1455 61.0864 24.0936 69.934L26.25 67.875L42.4232 55.4375L43.9459 57.2189L25.375 71.1875L30.0626 76.3257L47.6875 61.75L49.125 63.25C49.125 63.25 42.7379 68.9934 35.75 74.8125C34.9375 74.9375 33.7657 77.4531 32.4962 78.5806Z" fill="#E46161"/>
<path d="M36.125 75.4375L27.75 66.3125C26.3958 65.5625 23.7625 65.2 24.0625 69.75C24.3625 74.3 29.9375 77.5208 32.6875 78.5625L36.125 75.4375Z" fill="#E46161"/>
<path d="M42.5 53.8749C37.2083 57.5208 26.4875 64.8374 25.9375 64.9374C29.4583 68.9166 36.5875 76.8499 36.9375 76.7499C37.2875 76.6499 47.5417 68.4583 52.625 64.3749L42.5 53.8749Z" fill="#E46161"/>
<path d="M46.4219 51.113L30.6528 62.6704C30.1528 64.689 31.6913 64.7317 32.5231 64.5008C36.2715 61.8321 44.6177 55.8555 48.0152 53.2988C51.4128 50.7421 48.3686 50.7763 46.4219 51.113Z" fill="#FAB6B6"/>
<path d="M50.5713 55.1799L34.8022 66.7373C34.3022 68.7559 35.8407 68.7986 36.6725 68.5677C40.4209 65.899 48.7671 59.9224 52.1646 57.3657C55.5622 54.809 52.518 54.8432 50.5713 55.1799Z" fill="#FAB6B6"/>
<path d="M55.3442 59.2809L39.5752 70.8384C39.0751 72.8569 40.6137 72.8997 41.4454 72.6688C45.1938 70 53.54 64.0234 56.9376 61.4667C60.3351 58.91 57.291 58.9443 55.3442 59.2809Z" fill="#FAB6B6"/>
</svg>
