<svg width="108" height="100" viewBox="0 0 108 100" fill="none" xmlns="http://www.w3.org/2000/svg">
<circle cx="50" cy="50" r="50" fill="#C8B6FA"/>
<path d="M45.4513 43.9972C33.9414 53.5277 25.5656 65.563 22.8164 70.3893C27.154 70.3893 38.6883 69.1431 50.1249 64.1579C64.4207 57.9264 80.7325 44.6387 83.1151 43.2641C85.0212 42.1644 83.9093 40.24 83.1151 39.4152L79.4495 33.9169C79.4495 33.9169 81.2823 29.5182 81.2823 27.8687L95.9446 16.9636C100.16 17.4829 108.261 16.5237 106.941 8.53277C105.622 0.541815 99.0604 0.9267 95.9446 2.11801C87.9567 7.63165 71.5686 19.0713 69.919 20.7208C68.2695 22.3703 68.8041 23.974 69.2776 24.5697C66.1313 27.0745 56.9612 34.4667 45.4513 43.9972Z" fill="#4A4A4A"/>
</svg>
