<svg width="33" height="33" viewBox="0 0 33 33" fill="none" xmlns="http://www.w3.org/2000/svg">
<path d="M11.4541 7.95204C11.7181 7.68804 11.9461 7.58004 12.1381 7.62804C12.3541 7.67604 12.6061 7.91604 12.8941 8.34804C13.2301 8.78004 13.4701 8.97204 13.6141 8.92404C13.7581 8.87604 14.0701 8.80404 14.5501 8.70804C14.5981 8.68404 14.6701 8.66004 14.7661 8.63604C14.8621 8.61204 14.9821 8.57604 15.1261 8.52804C15.4381 8.45604 15.6421 8.40804 15.7381 8.38404C16.5781 8.12004 17.5741 8.27604 18.7261 8.85204C19.5181 9.26004 20.0221 9.63204 20.2381 9.96804C20.3341 10.16 20.4181 10.304 20.4901 10.4C20.5621 10.496 20.6221 10.544 20.6701 10.544C20.7181 10.544 20.8141 10.688 20.9581 10.976C21.1021 11.264 21.2461 11.612 21.3901 12.02C21.5581 12.404 21.6661 12.728 21.7141 12.992C21.8581 13.544 21.9181 13.964 21.8941 14.252C21.8701 14.54 21.7381 14.96 21.4981 15.512C21.2821 16.064 21.0301 16.58 20.7421 17.06C20.4541 17.516 20.1421 17.924 19.8061 18.284C19.4701 18.62 19.1461 18.872 18.8341 19.04C18.6901 19.088 18.5821 19.148 18.5101 19.22C18.4621 19.292 18.4261 19.376 18.4021 19.472C18.3781 19.544 18.3661 19.676 18.3661 19.868C18.3661 20.06 18.3781 20.216 18.4021 20.336C18.4261 20.456 18.4621 20.54 18.5101 20.588C18.5821 20.612 18.6661 20.672 18.7621 20.768C18.8581 20.864 18.9541 21.008 19.0501 21.2C19.2661 21.536 19.8901 22.28 20.9221 23.432C21.9061 24.488 22.5301 25.184 22.7941 25.52C22.9141 25.712 22.9981 25.892 23.0461 26.06C23.0941 26.228 23.1061 26.396 23.0821 26.564C23.0581 26.732 22.9861 26.864 22.8661 26.96C22.7701 27.032 22.6381 27.068 22.4701 27.068C22.4221 27.068 22.3621 27.056 22.2901 27.032C22.2181 26.984 22.1221 26.924 22.0021 26.852C21.9061 26.78 21.7861 26.684 21.6421 26.564C21.2581 26.228 20.9581 25.892 20.7421 25.556C20.4541 25.124 19.6861 24.248 18.4381 22.928C17.5741 22.04 16.9861 21.464 16.6741 21.2C16.5301 21.056 16.3741 20.948 16.2061 20.876C16.0381 20.78 15.8821 20.708 15.7381 20.66C14.7061 20.396 14.1421 20.396 14.0461 20.66C13.9741 20.9 13.9981 21.356 14.1181 22.028C14.1421 22.196 14.1661 22.364 14.1901 22.532C14.2381 22.7 14.2861 22.88 14.3341 23.072C14.3821 23.24 14.4301 23.408 14.4781 23.576C14.5261 23.744 14.5741 23.924 14.6221 24.116C14.7421 24.428 14.8261 24.704 14.8741 24.944C14.9461 25.16 14.9821 25.328 14.9821 25.448C14.9821 25.496 14.9821 25.544 14.9821 25.592C14.9821 25.64 14.9701 25.688 14.9461 25.736C14.9461 25.784 14.9221 25.832 14.8741 25.88C14.8501 25.928 14.8261 25.964 14.8021 25.988C14.5621 26.18 14.3101 26.228 14.0461 26.132C13.7821 26.012 13.5541 25.772 13.3621 25.412C13.1701 25.052 13.0261 24.704 12.9301 24.368C12.8341 24.032 12.6901 23.276 12.4981 22.1C12.4501 21.956 12.4141 21.812 12.3901 21.668C12.3661 21.5 12.3421 21.344 12.3181 21.2C12.2941 21.032 12.2581 20.864 12.2101 20.696C12.1861 20.528 12.1621 20.36 12.1381 20.192C12.0901 20.024 12.0421 19.808 11.9941 19.544C11.9461 19.256 11.8861 18.932 11.8141 18.572C11.7901 18.404 11.7541 18.26 11.7061 18.14C11.6821 17.996 11.6581 17.876 11.6341 17.78C11.6101 17.66 11.5741 17.552 11.5261 17.456C11.5021 17.36 11.4781 17.276 11.4541 17.204C11.3581 16.916 11.2861 15.356 11.2381 12.524C11.2141 10.436 11.2021 9.20004 11.2021 8.81604C11.2261 8.40804 11.3101 8.12004 11.4541 7.95204ZM17.7901 10.112C16.9981 9.68004 16.1341 9.59604 15.1981 9.86004C14.2621 10.1 13.5541 10.592 13.0741 11.336C12.8341 11.696 12.6901 11.96 12.6421 12.128C12.5941 12.272 12.5941 12.476 12.6421 12.74C12.6901 13.124 12.7621 13.88 12.8581 15.008C12.9061 15.56 12.9781 16.112 13.0741 16.664C13.1941 17.216 13.3261 17.696 13.4701 18.104C13.6141 18.488 13.7461 18.752 13.8661 18.896C14.0101 19.016 14.3221 18.98 14.8021 18.788C14.9221 18.74 15.0181 18.704 15.0901 18.68C15.1861 18.632 15.2701 18.608 15.3421 18.608C15.4141 18.584 15.4741 18.572 15.5221 18.572C15.6181 18.548 15.7261 18.548 15.8461 18.572C15.9901 18.596 16.1461 18.62 16.3141 18.644C16.7941 18.764 17.1781 18.764 17.4661 18.644C17.5381 18.62 17.6101 18.584 17.6821 18.536C17.7781 18.464 17.8621 18.392 17.9341 18.32C18.0301 18.248 18.1261 18.176 18.2221 18.104C18.3421 18.008 18.4501 17.9 18.5461 17.78C19.8181 16.436 20.3701 15.02 20.2021 13.532C20.0581 12.02 19.2541 10.88 17.7901 10.112Z" fill="#C9532F"/>
<rect x="0.758789" y="0.351074" width="32" height="1.29293" fill="#C9532F"/>
<rect x="0.758789" y="31.0581" width="32" height="1.29293" fill="#C9532F"/>
</svg>
