<svg width="106" height="82" viewBox="0 0 106 82" fill="none" xmlns="http://www.w3.org/2000/svg">
<path d="M3 60.2308L29.4564 33.7743C30.5279 32.7029 31.7999 31.853 33.1998 31.2731C34.5997 30.6932 36.1001 30.3948 37.6154 30.3948C39.1307 30.3948 40.6311 30.6932 42.031 31.2731C43.4309 31.853 44.7029 32.7029 45.7744 33.7743L72.2308 60.2308M64.5385 52.5385L71.7641 45.3128C72.8356 44.2414 74.1075 43.3914 75.5075 42.8116C76.9074 42.2317 78.4078 41.9332 79.9231 41.9332C81.4383 41.9332 82.9388 42.2317 84.3387 42.8116C85.7386 43.3914 87.0106 44.2414 88.0821 45.3128L103 60.2308M10.6923 79.4615H95.3077C97.3478 79.4615 99.3044 78.6511 100.747 77.2085C102.19 75.7659 103 73.8094 103 71.7692V10.2308C103 8.19063 102.19 6.23406 100.747 4.79148C99.3044 3.34889 97.3478 2.53845 95.3077 2.53845H10.6923C8.65218 2.53845 6.69561 3.34889 5.25303 4.79148C3.81044 6.23406 3 8.19063 3 10.2308V71.7692C3 73.8094 3.81044 75.7659 5.25303 77.2085C6.69561 78.6511 8.65218 79.4615 10.6923 79.4615ZM64.5385 21.7692H64.5795V21.8102H64.5385V21.7692ZM66.4615 21.7692C66.4615 22.2793 66.2589 22.7684 65.8983 23.129C65.5376 23.4897 65.0485 23.6923 64.5385 23.6923C64.0284 23.6923 63.5393 23.4897 63.1786 23.129C62.818 22.7684 62.6154 22.2793 62.6154 21.7692C62.6154 21.2592 62.818 20.77 63.1786 20.4094C63.5393 20.0488 64.0284 19.8461 64.5385 19.8461C65.0485 19.8461 65.5376 20.0488 65.8983 20.4094C66.2589 20.77 66.4615 21.2592 66.4615 21.7692Z" stroke="white" stroke-width="5" stroke-linecap="round" stroke-linejoin="round"/>
</svg>
