<svg width="13" height="10" viewBox="0 0 13 10" fill="none" xmlns="http://www.w3.org/2000/svg">
<path d="M1.45223 4.81603C1.41778 4.71249 1.41778 4.60057 1.45223 4.49703C2.14465 2.41378 4.11008 0.911133 6.42646 0.911133C8.74184 0.911133 10.7063 2.41229 11.4002 4.49453C11.4351 4.59787 11.4351 4.7097 11.4002 4.81353C10.7083 6.89678 8.74284 8.39943 6.42646 8.39943C4.11107 8.39943 2.14615 6.89828 1.45223 4.81603Z" stroke="black" stroke-width="1.5" stroke-linecap="round" stroke-linejoin="round"/>
<path d="M7.92412 4.65528C7.92412 5.05249 7.76633 5.43342 7.48546 5.71429C7.2046 5.99515 6.82366 6.15294 6.42646 6.15294C6.02925 6.15294 5.64832 5.99515 5.36745 5.71429C5.08659 5.43342 4.9288 5.05249 4.9288 4.65528C4.9288 4.25808 5.08659 3.87714 5.36745 3.59628C5.64832 3.31541 6.02925 3.15762 6.42646 3.15762C6.82366 3.15762 7.2046 3.31541 7.48546 3.59628C7.76633 3.87714 7.92412 4.25808 7.92412 4.65528Z" stroke="black" stroke-width="1.5" stroke-linecap="round" stroke-linejoin="round"/>
</svg>
